<svg width="32" height="32" viewBox="0 0 32 32" fill="none" xmlns="http://www.w3.org/2000/svg">
<rect width="32" height="32" rx="10" fill="#D6F0F0"/>
<path fill-rule="evenodd" clip-rule="evenodd" d="M13.7583 21.7214C13.5938 22.0539 13.5188 22.4214 13.5404 22.7897C13.562 23.1579 13.6795 23.5148 13.8818 23.827C14.0841 24.1392 14.3647 24.3965 14.6973 24.5748C15.03 24.7531 15.4037 24.8466 15.7837 24.8466C16.1637 24.8466 16.5374 24.7531 16.8701 24.5748C17.2027 24.3965 17.4833 24.1392 17.6856 23.827C17.8879 23.5148 18.0054 23.1579 18.027 22.7897C18.0486 22.4214 17.9736 22.0539 17.8091 21.7214H13.7583Z" fill="#EB5757"/>
<path fill-rule="evenodd" clip-rule="evenodd" d="M15.6626 9.12915C14.2865 9.12919 12.9667 9.65981 11.9936 10.6043L11.7899 10.802C10.8169 11.7466 10.2702 13.0276 10.2702 14.3634V15.2886C10.2702 16.9885 9.5745 18.6192 8.33559 19.8217C8.17532 19.9774 8.06618 20.1756 8.02199 20.3915C7.9778 20.6073 8.00053 20.831 8.08731 21.0344C8.17409 21.2377 8.32103 21.4114 8.50954 21.5337C8.69805 21.656 8.91968 21.7212 9.1464 21.7212H22.4208C22.6476 21.7213 22.8693 21.656 23.0579 21.5338C23.2465 21.4115 23.3935 21.2377 23.4803 21.0343C23.5671 20.8309 23.5898 20.6071 23.5455 20.3912C23.5013 20.1753 23.392 19.977 23.2316 19.8214C22.6183 19.2262 22.1317 18.5194 21.7998 17.7416C21.4678 16.9638 21.297 16.1302 21.2971 15.2883V14.3634C21.297 13.0276 20.7504 11.7466 19.7773 10.802L19.5736 10.6043C18.6005 9.65981 17.2807 9.12919 15.9046 9.12915H15.6626Z" fill="#F2C94C"/>
<path fill-rule="evenodd" clip-rule="evenodd" d="M16.4323 9.15556V8.18502C16.4323 8.01804 16.364 7.8579 16.2423 7.73983C16.1207 7.62175 15.9557 7.55542 15.7837 7.55542C15.6116 7.55542 15.4466 7.62175 15.325 7.73983C15.2033 7.8579 15.135 8.01804 15.135 8.18502V9.15556C15.3103 9.13816 15.4864 9.12944 15.6627 9.12943H15.9046C16.0819 9.12943 16.2578 9.13814 16.4323 9.15556Z" fill="#F2994A"/>
</svg>
