<svg width="32" height="32" viewBox="0 0 32 32" fill="none" xmlns="http://www.w3.org/2000/svg">
<rect width="32" height="32" rx="10" fill="#D6F0F0"/>
<g clip-path="url(#clip0_131_2766)">
<path d="M26 15.5001V15.4949C26 12.3877 24.6473 9.59737 22.4991 7.67849L22.4886 7.66974C22.4621 7.64117 22.4324 7.61563 22.4003 7.59362L22.3985 7.59274C20.4905 5.91779 18.0371 4.99629 15.4983 5.00099C12.8453 5.00099 10.4233 5.98624 8.577 7.61199L8.58838 7.60237C8.56619 7.61933 8.54568 7.63838 8.52713 7.65924C7.41726 8.64207 6.52887 9.85037 5.92081 11.2024C5.31274 12.5545 4.99888 14.0203 5 15.5027C5 18.609 6.351 21.3994 8.49738 23.3191L8.50788 23.3279C8.5358 23.3593 8.56688 23.3877 8.60063 23.4127L8.60238 23.4136C10.5097 25.0863 12.9614 26.0065 15.4983 26.0019C18.047 26.0058 20.5091 25.0771 22.4204 23.3909L22.409 23.4005C23.5382 22.4188 24.4433 21.206 25.0631 19.8442C25.6829 18.4824 26.003 17.0034 26.0018 15.5071V15.501L26 15.5001ZM22.0958 22.3295C21.5754 21.909 21.0161 21.5393 20.4254 21.2252L20.3685 21.1972C20.9049 19.6511 21.2278 17.8687 21.2584 16.0146V16.0006H24.9868C24.8614 18.3994 23.8289 20.6609 22.0984 22.3269L22.0958 22.3295ZM16.0005 21.0126C17.1231 21.073 18.1723 21.3197 19.14 21.7214L19.077 21.6986C18.3018 23.4661 17.2106 24.6806 16.0005 24.9475V21.0126ZM16.0005 20.0116V16.0006H20.26C20.2261 17.6616 19.9381 19.3076 19.406 20.8814L19.4401 20.7667C18.354 20.3196 17.1984 20.0644 16.025 20.0125L16.0014 20.0116H16.0005ZM16.0005 14.9996V10.9886C17.2055 10.9338 18.3919 10.67 19.5066 10.209L19.4375 10.2344C19.9231 11.651 20.2215 13.2837 20.26 14.9812V14.9996H16.0005ZM16.0005 9.98762V6.05449C17.2106 6.32137 18.3018 7.53062 19.077 9.30337C18.1723 9.67962 17.1231 9.92549 16.0259 9.98674L16.0005 9.98762ZM18.4978 6.48762C19.5291 6.83087 20.4935 7.34947 21.3485 8.02062L21.3284 8.00487C20.9408 8.30937 20.5059 8.59637 20.0474 8.84574L19.9984 8.87024C19.6288 7.99538 19.1193 7.18651 18.4899 6.47537L18.4978 6.48499V6.48762ZM14.9978 6.05712V9.98762C13.9184 9.93263 12.8565 9.6929 11.8583 9.27887L11.9213 9.30162C12.7 7.53412 13.7894 6.32049 14.9995 6.05362L14.9978 6.05712ZM11.0008 8.86762C10.5266 8.61223 10.0746 8.31749 9.64975 7.98649L9.67075 8.00224C10.5008 7.35076 11.4351 6.84429 12.434 6.50424L12.5005 6.48412C11.8881 7.17645 11.3893 7.96143 11.0226 8.80987L11.0008 8.86762ZM14.9995 10.9877V14.9987H10.74C10.7785 13.2829 11.0769 11.6501 11.5966 10.1189L11.5625 10.2335C12.6487 10.6784 13.8033 10.9333 14.9759 10.9869L14.9995 10.9877ZM14.9995 15.9997V20.0107C13.7945 20.0656 12.6081 20.3294 11.4934 20.7904L11.5625 20.765C11.0769 19.3492 10.7785 17.7156 10.74 16.0181V15.9997H14.9995ZM14.9995 21.0117V24.9449C13.7894 24.678 12.6983 23.4687 11.923 21.696C12.8278 21.3197 13.8769 21.0747 14.9741 21.0135L14.9995 21.0117ZM12.5058 24.5117C11.4753 24.168 10.5112 23.6507 9.655 22.9822L9.676 22.998C10.0636 22.6935 10.4985 22.4065 10.957 22.1571L11.006 22.1326C11.3728 23.0077 11.8822 23.8158 12.5136 24.524L12.5058 24.5152V24.5117ZM19.9993 22.1317C20.5068 22.4074 20.9416 22.6935 21.3503 23.0129L21.3293 22.9971C20.4992 23.6486 19.5649 24.1551 18.566 24.4951L18.4995 24.5152C19.1118 23.8232 19.6106 23.0385 19.9774 22.1904L19.9993 22.1335V22.1317ZM24.9868 14.9996H21.2584C21.231 13.1893 20.9186 11.3945 20.3326 9.68137L20.3685 9.80212C20.9866 9.47659 21.5717 9.09214 22.1159 8.65412L22.0949 8.66987C23.8224 10.3291 24.8554 12.5824 24.985 14.9742L24.9868 14.9996ZM8.90425 8.67074C9.40825 9.08024 9.97438 9.45562 10.5746 9.77499L10.6315 9.80299C10.0951 11.3491 9.77225 13.1315 9.74163 14.9856V14.9996H6.01238C6.13776 12.6008 7.17028 10.3393 8.90075 8.67337L8.90425 8.67074ZM6.01325 16.0006H9.74163C9.76899 17.811 10.0814 19.6057 10.6674 21.3189L10.6315 21.1981C9.97438 21.5472 9.40913 21.9226 8.88413 22.3461L8.90513 22.3304C7.17758 20.6711 6.14457 18.4178 6.015 16.026L6.01413 16.0015L6.01325 16.0006Z" fill="#005F60"/>
</g>
<defs>
<clipPath id="clip0_131_2766">
<rect width="21" height="21" fill="white" transform="translate(5 5)"/>
</clipPath>
</defs>
</svg>
