<svg width="294" height="68" viewBox="0 0 294 68" fill="none" xmlns="http://www.w3.org/2000/svg">
<rect width="294" height="68" rx="10" fill="#FEF9E2"/>
<path d="M37.044 28.928V40H35.588V31.744L31.908 40H30.884L27.188 31.728V40H25.732V28.928H27.3L31.396 38.08L35.492 28.928H37.044ZM43.0012 28.848C44.2173 28.848 45.2679 29.0773 46.1533 29.536C47.0493 29.984 47.7319 30.6293 48.2013 31.472C48.6813 32.3147 48.9213 33.3067 48.9213 34.448C48.9213 35.5893 48.6813 36.5813 48.2013 37.424C47.7319 38.256 47.0493 38.896 46.1533 39.344C45.2679 39.7813 44.2173 40 43.0012 40H39.5292V28.848H43.0012ZM43.0012 38.8C44.4413 38.8 45.5399 38.4213 46.2972 37.664C47.0546 36.896 47.4333 35.824 47.4333 34.448C47.4333 33.0613 47.0493 31.9787 46.2812 31.2C45.5239 30.4213 44.4306 30.032 43.0012 30.032H40.9852V38.8H43.0012Z" fill="black"/>
<circle cx="37.5" cy="33.5" r="22.5" fill="#F2B3B8" fill-opacity="0.58"/>
<path d="M81.684 22.66V31H80.316V25.288L77.772 31H76.824L74.268 25.288V31H72.9V22.66H74.376L77.304 29.2L80.22 22.66H81.684ZM83.038 27.664C83.038 27 83.174 26.412 83.446 25.9C83.726 25.388 84.102 24.992 84.574 24.712C85.054 24.424 85.582 24.28 86.158 24.28C86.678 24.28 87.13 24.384 87.514 24.592C87.906 24.792 88.218 25.044 88.45 25.348V24.388H89.83V31H88.45V30.016C88.218 30.328 87.902 30.588 87.502 30.796C87.102 31.004 86.646 31.108 86.134 31.108C85.566 31.108 85.046 30.964 84.574 30.676C84.102 30.38 83.726 29.972 83.446 29.452C83.174 28.924 83.038 28.328 83.038 27.664ZM88.45 27.688C88.45 27.232 88.354 26.836 88.162 26.5C87.978 26.164 87.734 25.908 87.43 25.732C87.126 25.556 86.798 25.468 86.446 25.468C86.094 25.468 85.766 25.556 85.462 25.732C85.158 25.9 84.91 26.152 84.718 26.488C84.534 26.816 84.442 27.208 84.442 27.664C84.442 28.12 84.534 28.52 84.718 28.864C84.91 29.208 85.158 29.472 85.462 29.656C85.774 29.832 86.102 29.92 86.446 29.92C86.798 29.92 87.126 29.832 87.43 29.656C87.734 29.48 87.978 29.224 88.162 28.888C88.354 28.544 88.45 28.144 88.45 27.688ZM93.0068 25.348C93.2068 25.012 93.4708 24.752 93.7988 24.568C94.1348 24.376 94.5308 24.28 94.9868 24.28V25.696H94.6388C94.1028 25.696 93.6948 25.832 93.4148 26.104C93.1428 26.376 93.0068 26.848 93.0068 27.52V31H91.6388V24.388H93.0068V25.348ZM102.208 24.388L98.1523 34.108H96.7363L98.0803 30.892L95.4763 24.388H97.0003L98.8603 29.428L100.792 24.388H102.208ZM109.106 22.66C109.994 22.66 110.77 22.832 111.434 23.176C112.106 23.512 112.622 24 112.982 24.64C113.35 25.272 113.534 26.012 113.534 26.86C113.534 27.708 113.35 28.444 112.982 29.068C112.622 29.692 112.106 30.172 111.434 30.508C110.77 30.836 109.994 31 109.106 31H106.382V22.66H109.106ZM109.106 29.884C110.082 29.884 110.83 29.62 111.35 29.092C111.87 28.564 112.13 27.82 112.13 26.86C112.13 25.892 111.87 25.136 111.35 24.592C110.83 24.048 110.082 23.776 109.106 23.776H107.75V29.884H109.106ZM114.446 27.664C114.446 27 114.582 26.412 114.854 25.9C115.134 25.388 115.51 24.992 115.982 24.712C116.462 24.424 116.99 24.28 117.566 24.28C118.086 24.28 118.538 24.384 118.922 24.592C119.314 24.792 119.626 25.044 119.858 25.348V24.388H121.238V31H119.858V30.016C119.626 30.328 119.31 30.588 118.91 30.796C118.51 31.004 118.054 31.108 117.542 31.108C116.974 31.108 116.454 30.964 115.982 30.676C115.51 30.38 115.134 29.972 114.854 29.452C114.582 28.924 114.446 28.328 114.446 27.664ZM119.858 27.688C119.858 27.232 119.762 26.836 119.57 26.5C119.386 26.164 119.142 25.908 118.838 25.732C118.534 25.556 118.206 25.468 117.854 25.468C117.502 25.468 117.174 25.556 116.87 25.732C116.566 25.9 116.318 26.152 116.126 26.488C115.942 26.816 115.85 27.208 115.85 27.664C115.85 28.12 115.942 28.52 116.126 28.864C116.318 29.208 116.566 29.472 116.87 29.656C117.182 29.832 117.51 29.92 117.854 29.92C118.206 29.92 118.534 29.832 118.838 29.656C119.142 29.48 119.386 29.224 119.57 28.888C119.762 28.544 119.858 28.144 119.858 27.688ZM131.927 24.388L129.875 31H128.435L127.102 26.116L125.77 31H124.33L122.266 24.388H123.658L125.038 29.704L126.442 24.388H127.87L129.215 29.68L130.582 24.388H131.927ZM136.297 24.28C136.817 24.28 137.281 24.388 137.689 24.604C138.105 24.82 138.429 25.14 138.661 25.564C138.893 25.988 139.009 26.5 139.009 27.1V31H137.653V27.304C137.653 26.712 137.505 26.26 137.209 25.948C136.913 25.628 136.509 25.468 135.997 25.468C135.485 25.468 135.077 25.628 134.773 25.948C134.477 26.26 134.329 26.712 134.329 27.304V31H132.961V24.388H134.329V25.144C134.553 24.872 134.837 24.66 135.181 24.508C135.533 24.356 135.905 24.28 136.297 24.28ZM146.919 33.232C146.135 32.48 145.531 31.524 145.107 30.364C144.691 29.204 144.483 27.96 144.483 26.632C144.483 25.272 144.707 23.988 145.155 22.78C145.611 21.572 146.279 20.576 147.159 19.792H148.575V19.924C147.655 20.772 146.963 21.788 146.499 22.972C146.035 24.156 145.803 25.376 145.803 26.632C145.803 27.84 146.019 29.008 146.451 30.136C146.883 31.264 147.511 32.252 148.335 33.1V33.232H146.919ZM154.841 29.296H151.349L150.749 31H149.321L152.309 22.648H153.893L156.881 31H155.441L154.841 29.296ZM154.457 28.18L153.101 24.304L151.733 28.18H154.457ZM161.528 24.28C162.048 24.28 162.512 24.388 162.92 24.604C163.336 24.82 163.66 25.14 163.892 25.564C164.124 25.988 164.24 26.5 164.24 27.1V31H162.884V27.304C162.884 26.712 162.736 26.26 162.44 25.948C162.144 25.628 161.74 25.468 161.228 25.468C160.716 25.468 160.308 25.628 160.004 25.948C159.708 26.26 159.56 26.712 159.56 27.304V31H158.192V24.388H159.56V25.144C159.784 24.872 160.068 24.66 160.412 24.508C160.764 24.356 161.136 24.28 161.528 24.28ZM165.541 27.664C165.541 27 165.677 26.412 165.949 25.9C166.229 25.388 166.605 24.992 167.077 24.712C167.557 24.424 168.085 24.28 168.661 24.28C169.181 24.28 169.633 24.384 170.017 24.592C170.409 24.792 170.721 25.044 170.953 25.348V24.388H172.333V31H170.953V30.016C170.721 30.328 170.405 30.588 170.005 30.796C169.605 31.004 169.149 31.108 168.637 31.108C168.069 31.108 167.549 30.964 167.077 30.676C166.605 30.38 166.229 29.972 165.949 29.452C165.677 28.924 165.541 28.328 165.541 27.664ZM170.953 27.688C170.953 27.232 170.857 26.836 170.665 26.5C170.481 26.164 170.237 25.908 169.933 25.732C169.629 25.556 169.301 25.468 168.949 25.468C168.597 25.468 168.269 25.556 167.965 25.732C167.661 25.9 167.413 26.152 167.221 26.488C167.037 26.816 166.945 27.208 166.945 27.664C166.945 28.12 167.037 28.52 167.221 28.864C167.413 29.208 167.661 29.472 167.965 29.656C168.277 29.832 168.605 29.92 168.949 29.92C169.301 29.92 169.629 29.832 169.933 29.656C170.237 29.48 170.481 29.224 170.665 28.888C170.857 28.544 170.953 28.144 170.953 27.688ZM176.758 27.7L179.806 31H177.958L175.51 28.156V31H174.142V22.12H175.51V27.28L177.91 24.388H179.806L176.758 27.7ZM180.463 33.232V33.1C181.287 32.252 181.915 31.264 182.347 30.136C182.779 29.008 182.995 27.84 182.995 26.632C182.995 25.376 182.763 24.156 182.299 22.972C181.835 21.788 181.143 20.772 180.223 19.924V19.792H181.639C182.519 20.576 183.183 21.572 183.631 22.78C184.087 23.988 184.315 25.272 184.315 26.632C184.315 27.96 184.103 29.204 183.679 30.364C183.263 31.524 182.663 32.48 181.879 33.232H180.463Z" fill="black"/>
<path d="M78.288 35.66V36.776H76.068V44H74.7V36.776H72.468V35.66H78.288ZM79.2294 40.664C79.2294 40 79.3654 39.412 79.6374 38.9C79.9174 38.388 80.2934 37.992 80.7654 37.712C81.2454 37.424 81.7734 37.28 82.3494 37.28C82.8694 37.28 83.3214 37.384 83.7054 37.592C84.0974 37.792 84.4094 38.044 84.6414 38.348V37.388H86.0214V44H84.6414V43.016C84.4094 43.328 84.0934 43.588 83.6934 43.796C83.2934 44.004 82.8374 44.108 82.3254 44.108C81.7574 44.108 81.2374 43.964 80.7654 43.676C80.2934 43.38 79.9174 42.972 79.6374 42.452C79.3654 41.924 79.2294 41.328 79.2294 40.664ZM84.6414 40.688C84.6414 40.232 84.5454 39.836 84.3534 39.5C84.1694 39.164 83.9254 38.908 83.6214 38.732C83.3174 38.556 82.9894 38.468 82.6374 38.468C82.2854 38.468 81.9574 38.556 81.6534 38.732C81.3494 38.9 81.1014 39.152 80.9094 39.488C80.7254 39.816 80.6334 40.208 80.6334 40.664C80.6334 41.12 80.7254 41.52 80.9094 41.864C81.1014 42.208 81.3494 42.472 81.6534 42.656C81.9654 42.832 82.2934 42.92 82.6374 42.92C82.9894 42.92 83.3174 42.832 83.6214 42.656C83.9254 42.48 84.1694 42.224 84.3534 41.888C84.5454 41.544 84.6414 41.144 84.6414 40.688ZM89.4263 38.504V42.164C89.4263 42.412 89.4823 42.592 89.5943 42.704C89.7143 42.808 89.9143 42.86 90.1943 42.86H91.0343V44H89.9543C89.3383 44 88.8663 43.856 88.5383 43.568C88.2103 43.28 88.0463 42.812 88.0463 42.164V38.504H87.2663V37.388H88.0463V35.744H89.4263V37.388H91.0343V38.504H89.4263ZM91.8511 40.664C91.8511 40 91.9871 39.412 92.2591 38.9C92.5391 38.388 92.9151 37.992 93.3871 37.712C93.8671 37.424 94.3951 37.28 94.9711 37.28C95.4911 37.28 95.9431 37.384 96.3271 37.592C96.7191 37.792 97.0311 38.044 97.2631 38.348V37.388H98.6431V44H97.2631V43.016C97.0311 43.328 96.7151 43.588 96.3151 43.796C95.9151 44.004 95.4591 44.108 94.9471 44.108C94.3791 44.108 93.8591 43.964 93.3871 43.676C92.9151 43.38 92.5391 42.972 92.2591 42.452C91.9871 41.924 91.8511 41.328 91.8511 40.664ZM97.2631 40.688C97.2631 40.232 97.1671 39.836 96.9751 39.5C96.7911 39.164 96.5471 38.908 96.2431 38.732C95.9391 38.556 95.6111 38.468 95.2591 38.468C94.9071 38.468 94.5791 38.556 94.2751 38.732C93.9711 38.9 93.7231 39.152 93.5311 39.488C93.3471 39.816 93.2551 40.208 93.2551 40.664C93.2551 41.12 93.3471 41.52 93.5311 41.864C93.7231 42.208 93.9711 42.472 94.2751 42.656C94.5871 42.832 94.9151 42.92 95.2591 42.92C95.6111 42.92 95.9391 42.832 96.2431 42.656C96.5471 42.48 96.7911 42.224 96.9751 41.888C97.1671 41.544 97.2631 41.144 97.2631 40.688ZM103.788 37.28C104.308 37.28 104.772 37.388 105.18 37.604C105.596 37.82 105.92 38.14 106.152 38.564C106.384 38.988 106.5 39.5 106.5 40.1V44H105.144V40.304C105.144 39.712 104.996 39.26 104.7 38.948C104.404 38.628 104 38.468 103.488 38.468C102.976 38.468 102.568 38.628 102.264 38.948C101.968 39.26 101.82 39.712 101.82 40.304V44H100.452V37.388H101.82V38.144C102.044 37.872 102.328 37.66 102.672 37.508C103.024 37.356 103.396 37.28 103.788 37.28ZM110.921 37.28C111.433 37.28 111.885 37.384 112.277 37.592C112.677 37.792 112.989 38.044 113.213 38.348V37.388H114.593V44.108C114.593 44.716 114.465 45.256 114.209 45.728C113.953 46.208 113.581 46.584 113.093 46.856C112.613 47.128 112.037 47.264 111.365 47.264C110.469 47.264 109.725 47.052 109.133 46.628C108.541 46.212 108.205 45.644 108.125 44.924H109.481C109.585 45.268 109.805 45.544 110.141 45.752C110.485 45.968 110.893 46.076 111.365 46.076C111.917 46.076 112.361 45.908 112.697 45.572C113.041 45.236 113.213 44.748 113.213 44.108V43.004C112.981 43.316 112.665 43.58 112.265 43.796C111.873 44.004 111.425 44.108 110.921 44.108C110.345 44.108 109.817 43.964 109.337 43.676C108.865 43.38 108.489 42.972 108.209 42.452C107.937 41.924 107.801 41.328 107.801 40.664C107.801 40 107.937 39.412 108.209 38.9C108.489 38.388 108.865 37.992 109.337 37.712C109.817 37.424 110.345 37.28 110.921 37.28ZM113.213 40.688C113.213 40.232 113.117 39.836 112.925 39.5C112.741 39.164 112.497 38.908 112.193 38.732C111.889 38.556 111.561 38.468 111.209 38.468C110.857 38.468 110.529 38.556 110.225 38.732C109.921 38.9 109.673 39.152 109.481 39.488C109.297 39.816 109.205 40.208 109.205 40.664C109.205 41.12 109.297 41.52 109.481 41.864C109.673 42.208 109.921 42.472 110.225 42.656C110.537 42.832 110.865 42.92 111.209 42.92C111.561 42.92 111.889 42.832 112.193 42.656C112.497 42.48 112.741 42.224 112.925 41.888C113.117 41.544 113.213 41.144 113.213 40.688ZM119.066 37.28C119.578 37.28 120.03 37.384 120.422 37.592C120.822 37.792 121.134 38.044 121.358 38.348V37.388H122.738V44.108C122.738 44.716 122.61 45.256 122.354 45.728C122.098 46.208 121.726 46.584 121.238 46.856C120.758 47.128 120.182 47.264 119.51 47.264C118.614 47.264 117.87 47.052 117.278 46.628C116.686 46.212 116.35 45.644 116.27 44.924H117.626C117.73 45.268 117.95 45.544 118.286 45.752C118.63 45.968 119.038 46.076 119.51 46.076C120.062 46.076 120.506 45.908 120.842 45.572C121.186 45.236 121.358 44.748 121.358 44.108V43.004C121.126 43.316 120.81 43.58 120.41 43.796C120.018 44.004 119.57 44.108 119.066 44.108C118.49 44.108 117.962 43.964 117.482 43.676C117.01 43.38 116.634 42.972 116.354 42.452C116.082 41.924 115.946 41.328 115.946 40.664C115.946 40 116.082 39.412 116.354 38.9C116.634 38.388 117.01 37.992 117.482 37.712C117.962 37.424 118.49 37.28 119.066 37.28ZM121.358 40.688C121.358 40.232 121.262 39.836 121.07 39.5C120.886 39.164 120.642 38.908 120.338 38.732C120.034 38.556 119.706 38.468 119.354 38.468C119.002 38.468 118.674 38.556 118.37 38.732C118.066 38.9 117.818 39.152 117.626 39.488C117.442 39.816 117.35 40.208 117.35 40.664C117.35 41.12 117.442 41.52 117.626 41.864C117.818 42.208 118.066 42.472 118.37 42.656C118.682 42.832 119.01 42.92 119.354 42.92C119.706 42.92 120.034 42.832 120.338 42.656C120.642 42.48 120.886 42.224 121.07 41.888C121.262 41.544 121.358 41.144 121.358 40.688ZM124.09 40.664C124.09 40 124.226 39.412 124.498 38.9C124.778 38.388 125.154 37.992 125.626 37.712C126.106 37.424 126.634 37.28 127.21 37.28C127.73 37.28 128.182 37.384 128.566 37.592C128.958 37.792 129.27 38.044 129.503 38.348V37.388H130.883V44H129.503V43.016C129.27 43.328 128.954 43.588 128.554 43.796C128.154 44.004 127.698 44.108 127.186 44.108C126.618 44.108 126.098 43.964 125.626 43.676C125.154 43.38 124.778 42.972 124.498 42.452C124.226 41.924 124.09 41.328 124.09 40.664ZM129.503 40.688C129.503 40.232 129.406 39.836 129.214 39.5C129.03 39.164 128.786 38.908 128.482 38.732C128.178 38.556 127.85 38.468 127.498 38.468C127.146 38.468 126.818 38.556 126.514 38.732C126.21 38.9 125.962 39.152 125.77 39.488C125.586 39.816 125.494 40.208 125.494 40.664C125.494 41.12 125.586 41.52 125.77 41.864C125.962 42.208 126.21 42.472 126.514 42.656C126.826 42.832 127.154 42.92 127.498 42.92C127.85 42.92 128.178 42.832 128.482 42.656C128.786 42.48 129.03 42.224 129.214 41.888C129.406 41.544 129.503 41.144 129.503 40.688ZM134.059 38.36C134.291 38.056 134.607 37.8 135.007 37.592C135.407 37.384 135.859 37.28 136.363 37.28C136.939 37.28 137.463 37.424 137.935 37.712C138.415 37.992 138.791 38.388 139.063 38.9C139.335 39.412 139.471 40 139.471 40.664C139.471 41.328 139.335 41.924 139.063 42.452C138.791 42.972 138.415 43.38 137.935 43.676C137.463 43.964 136.939 44.108 136.363 44.108C135.859 44.108 135.411 44.008 135.019 43.808C134.627 43.6 134.307 43.344 134.059 43.04V47.144H132.691V37.388H134.059V38.36ZM138.079 40.664C138.079 40.208 137.983 39.816 137.791 39.488C137.607 39.152 137.359 38.9 137.047 38.732C136.743 38.556 136.415 38.468 136.063 38.468C135.719 38.468 135.391 38.556 135.079 38.732C134.775 38.908 134.527 39.164 134.335 39.5C134.151 39.836 134.059 40.232 134.059 40.688C134.059 41.144 134.151 41.544 134.335 41.888C134.527 42.224 134.775 42.48 135.079 42.656C135.391 42.832 135.719 42.92 136.063 42.92C136.415 42.92 136.743 42.832 137.047 42.656C137.359 42.472 137.607 42.208 137.791 41.864C137.983 41.52 138.079 41.12 138.079 40.664ZM147.301 37.28C147.821 37.28 148.285 37.388 148.693 37.604C149.109 37.82 149.433 38.14 149.665 38.564C149.897 38.988 150.013 39.5 150.013 40.1V44H148.657V40.304C148.657 39.712 148.509 39.26 148.213 38.948C147.917 38.628 147.513 38.468 147.001 38.468C146.489 38.468 146.081 38.628 145.777 38.948C145.481 39.26 145.333 39.712 145.333 40.304V44H143.965V37.388H145.333V38.144C145.557 37.872 145.841 37.66 146.185 37.508C146.537 37.356 146.909 37.28 147.301 37.28ZM154.434 37.28C154.946 37.28 155.398 37.384 155.79 37.592C156.19 37.792 156.502 38.044 156.726 38.348V37.388H158.106V44.108C158.106 44.716 157.978 45.256 157.722 45.728C157.466 46.208 157.094 46.584 156.606 46.856C156.126 47.128 155.55 47.264 154.878 47.264C153.982 47.264 153.238 47.052 152.646 46.628C152.054 46.212 151.718 45.644 151.638 44.924H152.994C153.098 45.268 153.318 45.544 153.654 45.752C153.998 45.968 154.406 46.076 154.878 46.076C155.43 46.076 155.874 45.908 156.21 45.572C156.554 45.236 156.726 44.748 156.726 44.108V43.004C156.494 43.316 156.178 43.58 155.778 43.796C155.386 44.004 154.938 44.108 154.434 44.108C153.858 44.108 153.33 43.964 152.85 43.676C152.378 43.38 152.002 42.972 151.722 42.452C151.45 41.924 151.314 41.328 151.314 40.664C151.314 40 151.45 39.412 151.722 38.9C152.002 38.388 152.378 37.992 152.85 37.712C153.33 37.424 153.858 37.28 154.434 37.28ZM156.726 40.688C156.726 40.232 156.63 39.836 156.438 39.5C156.254 39.164 156.01 38.908 155.706 38.732C155.402 38.556 155.074 38.468 154.722 38.468C154.37 38.468 154.042 38.556 153.738 38.732C153.434 38.9 153.186 39.152 152.994 39.488C152.81 39.816 152.718 40.208 152.718 40.664C152.718 41.12 152.81 41.52 152.994 41.864C153.186 42.208 153.434 42.472 153.738 42.656C154.05 42.832 154.378 42.92 154.722 42.92C155.074 42.92 155.402 42.832 155.706 42.656C156.01 42.48 156.254 42.224 156.438 41.888C156.63 41.544 156.726 41.144 156.726 40.688ZM168.072 42.296H164.58L163.98 44H162.552L165.54 35.648H167.124L170.112 44H168.672L168.072 42.296ZM167.688 41.18L166.332 37.304L164.964 41.18H167.688ZM172.791 35.12V44H171.423V35.12H172.791ZM180.66 40.532C180.66 40.78 180.644 41.004 180.612 41.204H175.56C175.6 41.732 175.796 42.156 176.148 42.476C176.5 42.796 176.932 42.956 177.444 42.956C178.18 42.956 178.7 42.648 179.004 42.032H180.48C180.28 42.64 179.916 43.14 179.388 43.532C178.868 43.916 178.22 44.108 177.444 44.108C176.812 44.108 176.244 43.968 175.74 43.688C175.244 43.4 174.852 43 174.564 42.488C174.284 41.968 174.144 41.368 174.144 40.688C174.144 40.008 174.28 39.412 174.552 38.9C174.832 38.38 175.22 37.98 175.716 37.7C176.22 37.42 176.796 37.28 177.444 37.28C178.068 37.28 178.624 37.416 179.112 37.688C179.6 37.96 179.98 38.344 180.252 38.84C180.524 39.328 180.66 39.892 180.66 40.532ZM179.232 40.1C179.224 39.596 179.044 39.192 178.692 38.888C178.34 38.584 177.904 38.432 177.384 38.432C176.912 38.432 176.508 38.584 176.172 38.888C175.836 39.184 175.636 39.588 175.572 40.1H179.232ZM183.386 38.348C183.586 38.012 183.85 37.752 184.178 37.568C184.514 37.376 184.91 37.28 185.366 37.28V38.696H185.018C184.482 38.696 184.074 38.832 183.794 39.104C183.522 39.376 183.386 39.848 183.386 40.52V44H182.018V37.388H183.386V38.348ZM188.231 38.504V42.164C188.231 42.412 188.287 42.592 188.399 42.704C188.519 42.808 188.719 42.86 188.999 42.86H189.839V44H188.759C188.143 44 187.671 43.856 187.343 43.568C187.015 43.28 186.851 42.812 186.851 42.164V38.504H186.071V37.388H186.851V35.744H188.231V37.388H189.839V38.504H188.231Z" fill="#878787"/>
<rect x="203" y="24.5" width="74" height="18" rx="9" fill="#FFD994"/>
<path d="M226.46 37H225.32L221.89 31.81V37H220.75V30.04H221.89L225.32 35.22V30.04H226.46V37ZM230.357 37.09C229.837 37.09 229.367 36.9733 228.947 36.74C228.527 36.5 228.197 36.1667 227.957 35.74C227.717 35.3067 227.597 34.8067 227.597 34.24C227.597 33.68 227.72 33.1833 227.967 32.75C228.214 32.3167 228.55 31.9833 228.977 31.75C229.404 31.5167 229.88 31.4 230.407 31.4C230.934 31.4 231.41 31.5167 231.837 31.75C232.264 31.9833 232.6 32.3167 232.847 32.75C233.094 33.1833 233.217 33.68 233.217 34.24C233.217 34.8 233.09 35.2967 232.837 35.73C232.584 36.1633 232.237 36.5 231.797 36.74C231.364 36.9733 230.884 37.09 230.357 37.09ZM230.357 36.1C230.65 36.1 230.924 36.03 231.177 35.89C231.437 35.75 231.647 35.54 231.807 35.26C231.967 34.98 232.047 34.64 232.047 34.24C232.047 33.84 231.97 33.5033 231.817 33.23C231.664 32.95 231.46 32.74 231.207 32.6C230.954 32.46 230.68 32.39 230.387 32.39C230.094 32.39 229.82 32.46 229.567 32.6C229.32 32.74 229.124 32.95 228.977 33.23C228.83 33.5033 228.757 33.84 228.757 34.24C228.757 34.8333 228.907 35.2933 229.207 35.62C229.514 35.94 229.897 36.1 230.357 36.1ZM235.684 32.42V35.47C235.684 35.6767 235.731 35.8267 235.824 35.92C235.924 36.0067 236.091 36.05 236.324 36.05H237.024V37H236.124C235.611 37 235.217 36.88 234.944 36.64C234.671 36.4 234.534 36.01 234.534 35.47V32.42H233.884V31.49H234.534V30.12H235.684V31.49H237.024V32.42H235.684ZM238.665 30.76C238.458 30.76 238.285 30.69 238.145 30.55C238.005 30.41 237.935 30.2367 237.935 30.03C237.935 29.8233 238.005 29.65 238.145 29.51C238.285 29.37 238.458 29.3 238.665 29.3C238.865 29.3 239.035 29.37 239.175 29.51C239.315 29.65 239.385 29.8233 239.385 30.03C239.385 30.2367 239.315 30.41 239.175 30.55C239.035 30.69 238.865 30.76 238.665 30.76ZM239.225 31.49V37H238.085V31.49H239.225ZM243.041 32.42H242.021V37H240.871V32.42H240.221V31.49H240.871V31.1C240.871 30.4667 241.038 30.0067 241.371 29.72C241.711 29.4267 242.241 29.28 242.961 29.28V30.23C242.615 30.23 242.371 30.2967 242.231 30.43C242.091 30.5567 242.021 30.78 242.021 31.1V31.49H243.041V32.42ZM244.642 30.76C244.435 30.76 244.262 30.69 244.122 30.55C243.982 30.41 243.912 30.2367 243.912 30.03C243.912 29.8233 243.982 29.65 244.122 29.51C244.262 29.37 244.435 29.3 244.642 29.3C244.842 29.3 245.012 29.37 245.152 29.51C245.292 29.65 245.362 29.8233 245.362 30.03C245.362 30.2367 245.292 30.41 245.152 30.55C245.012 30.69 244.842 30.76 244.642 30.76ZM245.202 31.49V37H244.062V31.49H245.202ZM251.758 34.11C251.758 34.3167 251.745 34.5033 251.718 34.67H247.508C247.542 35.11 247.705 35.4633 247.998 35.73C248.292 35.9967 248.652 36.13 249.078 36.13C249.692 36.13 250.125 35.8733 250.378 35.36H251.608C251.442 35.8667 251.138 36.2833 250.698 36.61C250.265 36.93 249.725 37.09 249.078 37.09C248.552 37.09 248.078 36.9733 247.658 36.74C247.245 36.5 246.918 36.1667 246.678 35.74C246.445 35.3067 246.328 34.8067 246.328 34.24C246.328 33.6733 246.442 33.1767 246.668 32.75C246.902 32.3167 247.225 31.9833 247.638 31.75C248.058 31.5167 248.538 31.4 249.078 31.4C249.598 31.4 250.062 31.5133 250.468 31.74C250.875 31.9667 251.192 32.2867 251.418 32.7C251.645 33.1067 251.758 33.5767 251.758 34.11ZM250.568 33.75C250.562 33.33 250.412 32.9933 250.118 32.74C249.825 32.4867 249.462 32.36 249.028 32.36C248.635 32.36 248.298 32.4867 248.018 32.74C247.738 32.9867 247.572 33.3233 247.518 33.75H250.568ZM252.51 34.22C252.51 33.6667 252.624 33.1767 252.85 32.75C253.084 32.3233 253.397 31.9933 253.79 31.76C254.19 31.52 254.634 31.4 255.12 31.4C255.48 31.4 255.834 31.48 256.18 31.64C256.534 31.7933 256.814 32 257.02 32.26V29.6H258.17V37H257.02V36.17C256.834 36.4367 256.574 36.6567 256.24 36.83C255.914 37.0033 255.537 37.09 255.11 37.09C254.63 37.09 254.19 36.97 253.79 36.73C253.397 36.4833 253.084 36.1433 252.85 35.71C252.624 35.27 252.51 34.7733 252.51 34.22ZM257.02 34.24C257.02 33.86 256.94 33.53 256.78 33.25C256.627 32.97 256.424 32.7567 256.17 32.61C255.917 32.4633 255.644 32.39 255.35 32.39C255.057 32.39 254.784 32.4633 254.53 32.61C254.277 32.75 254.07 32.96 253.91 33.24C253.757 33.5133 253.68 33.84 253.68 34.22C253.68 34.6 253.757 34.9333 253.91 35.22C254.07 35.5067 254.277 35.7267 254.53 35.88C254.79 36.0267 255.064 36.1 255.35 36.1C255.644 36.1 255.917 36.0267 256.17 35.88C256.424 35.7333 256.627 35.52 256.78 35.24C256.94 34.9533 257.02 34.62 257.02 34.24Z" fill="#981F25"/>
</svg>
