<svg width="297" height="160" viewBox="0 0 297 160" fill="none" xmlns="http://www.w3.org/2000/svg">
<rect width="297" height="160" rx="20" fill="#FEF9E2"/>
<rect x="16.5" y="21.5" width="263" height="64" rx="9.5" fill="#FFFBFB" stroke="#FFE0E0"/>
<rect x="102" y="45" width="98" height="16" fill="#FFD1D1"/>
<rect x="217" y="27" width="31" height="16" fill="#FFD1D1"/>
<rect x="31" y="64" width="47" height="16" fill="#FFD1D1"/>
<rect x="100" y="64" width="98" height="16" fill="#FFD1D1"/>
<path d="M40.684 30.66V39H39.316V33.288L36.772 39H35.824L33.268 33.288V39H31.9V30.66H33.376L36.304 37.2L39.22 30.66H40.684ZM42.038 35.664C42.038 35 42.174 34.412 42.446 33.9C42.726 33.388 43.102 32.992 43.574 32.712C44.054 32.424 44.582 32.28 45.158 32.28C45.678 32.28 46.13 32.384 46.514 32.592C46.906 32.792 47.218 33.044 47.45 33.348V32.388H48.83V39H47.45V38.016C47.218 38.328 46.902 38.588 46.502 38.796C46.102 39.004 45.646 39.108 45.134 39.108C44.566 39.108 44.046 38.964 43.574 38.676C43.102 38.38 42.726 37.972 42.446 37.452C42.174 36.924 42.038 36.328 42.038 35.664ZM47.45 35.688C47.45 35.232 47.354 34.836 47.162 34.5C46.978 34.164 46.734 33.908 46.43 33.732C46.126 33.556 45.798 33.468 45.446 33.468C45.094 33.468 44.766 33.556 44.462 33.732C44.158 33.9 43.91 34.152 43.718 34.488C43.534 34.816 43.442 35.208 43.442 35.664C43.442 36.12 43.534 36.52 43.718 36.864C43.91 37.208 44.158 37.472 44.462 37.656C44.774 37.832 45.102 37.92 45.446 37.92C45.798 37.92 46.126 37.832 46.43 37.656C46.734 37.48 46.978 37.224 47.162 36.888C47.354 36.544 47.45 36.144 47.45 35.688ZM54.0588 32.28C54.5628 32.28 55.0108 32.388 55.4028 32.604C55.8028 32.82 56.1148 33.14 56.3388 33.564C56.5708 33.988 56.6868 34.5 56.6868 35.1V39H55.3308V35.304C55.3308 34.712 55.1828 34.26 54.8868 33.948C54.5908 33.628 54.1868 33.468 53.6748 33.468C53.1628 33.468 52.7548 33.628 52.4508 33.948C52.1548 34.26 52.0068 34.712 52.0068 35.304V39H50.6388V30.12H52.0068V33.156C52.2388 32.876 52.5308 32.66 52.8828 32.508C53.2428 32.356 53.6348 32.28 54.0588 32.28ZM57.9878 35.664C57.9878 35 58.1238 34.412 58.3958 33.9C58.6758 33.388 59.0518 32.992 59.5238 32.712C60.0038 32.424 60.5318 32.28 61.1078 32.28C61.6278 32.28 62.0798 32.384 62.4638 32.592C62.8558 32.792 63.1678 33.044 63.3998 33.348V32.388H64.7798V39H63.3998V38.016C63.1678 38.328 62.8518 38.588 62.4518 38.796C62.0518 39.004 61.5958 39.108 61.0838 39.108C60.5158 39.108 59.9958 38.964 59.5238 38.676C59.0518 38.38 58.6758 37.972 58.3958 37.452C58.1238 36.924 57.9878 36.328 57.9878 35.664ZM63.3998 35.688C63.3998 35.232 63.3038 34.836 63.1118 34.5C62.9278 34.164 62.6838 33.908 62.3798 33.732C62.0758 33.556 61.7478 33.468 61.3958 33.468C61.0438 33.468 60.7158 33.556 60.4118 33.732C60.1078 33.9 59.8598 34.152 59.6678 34.488C59.4838 34.816 59.3918 35.208 59.3918 35.664C59.3918 36.12 59.4838 36.52 59.6678 36.864C59.8598 37.208 60.1078 37.472 60.4118 37.656C60.7238 37.832 61.0518 37.92 61.3958 37.92C61.7478 37.92 62.0758 37.832 62.3798 37.656C62.6838 37.48 62.9278 37.224 63.1118 36.888C63.3038 36.544 63.3998 36.144 63.3998 35.688ZM67.9566 30.12V39H66.5886V30.12H67.9566ZM76.2299 32.28C76.7499 32.28 77.2139 32.388 77.6219 32.604C78.0379 32.82 78.3619 33.14 78.5939 33.564C78.8259 33.988 78.9419 34.5 78.9419 35.1V39H77.5859V35.304C77.5859 34.712 77.4379 34.26 77.1419 33.948C76.8459 33.628 76.4419 33.468 75.9299 33.468C75.4179 33.468 75.0099 33.628 74.7059 33.948C74.4099 34.26 74.2619 34.712 74.2619 35.304V39H72.8939V32.388H74.2619V33.144C74.4859 32.872 74.7699 32.66 75.1139 32.508C75.4659 32.356 75.8379 32.28 76.2299 32.28ZM80.2428 35.664C80.2428 35 80.3788 34.412 80.6508 33.9C80.9308 33.388 81.3068 32.992 81.7788 32.712C82.2588 32.424 82.7868 32.28 83.3628 32.28C83.8828 32.28 84.3348 32.384 84.7188 32.592C85.1108 32.792 85.4228 33.044 85.6548 33.348V32.388H87.0348V39H85.6548V38.016C85.4228 38.328 85.1068 38.588 84.7068 38.796C84.3068 39.004 83.8508 39.108 83.3388 39.108C82.7708 39.108 82.2508 38.964 81.7788 38.676C81.3068 38.38 80.9308 37.972 80.6508 37.452C80.3788 36.924 80.2428 36.328 80.2428 35.664ZM85.6548 35.688C85.6548 35.232 85.5588 34.836 85.3668 34.5C85.1828 34.164 84.9388 33.908 84.6348 33.732C84.3308 33.556 84.0028 33.468 83.6508 33.468C83.2988 33.468 82.9708 33.556 82.6668 33.732C82.3628 33.9 82.1148 34.152 81.9228 34.488C81.7388 34.816 81.6468 35.208 81.6468 35.664C81.6468 36.12 81.7388 36.52 81.9228 36.864C82.1148 37.208 82.3628 37.472 82.6668 37.656C82.9788 37.832 83.3068 37.92 83.6508 37.92C84.0028 37.92 84.3308 37.832 84.6348 37.656C84.9388 37.48 85.1828 37.224 85.3668 36.888C85.5588 36.544 85.6548 36.144 85.6548 35.688ZM91.5168 35.688C91.5168 35.008 91.6528 34.412 91.9248 33.9C92.2048 33.38 92.5888 32.98 93.0768 32.7C93.5648 32.42 94.1248 32.28 94.7568 32.28C95.5568 32.28 96.2168 32.472 96.7368 32.856C97.2648 33.232 97.6208 33.772 97.8048 34.476H96.3288C96.2088 34.148 96.0168 33.892 95.7528 33.708C95.4888 33.524 95.1568 33.432 94.7568 33.432C94.1968 33.432 93.7488 33.632 93.4128 34.032C93.0848 34.424 92.9208 34.976 92.9208 35.688C92.9208 36.4 93.0848 36.956 93.4128 37.356C93.7488 37.756 94.1968 37.956 94.7568 37.956C95.5488 37.956 96.0728 37.608 96.3288 36.912H97.8048C97.6128 37.584 97.2528 38.12 96.7248 38.52C96.1968 38.912 95.5408 39.108 94.7568 39.108C94.1248 39.108 93.5648 38.968 93.0768 38.688C92.5888 38.4 92.2048 38 91.9248 37.488C91.6528 36.968 91.5168 36.368 91.5168 35.688ZM105.168 32.388V39H103.8V38.22C103.584 38.492 103.3 38.708 102.948 38.868C102.604 39.02 102.236 39.096 101.844 39.096C101.324 39.096 100.856 38.988 100.44 38.772C100.032 38.556 99.7082 38.236 99.4682 37.812C99.2362 37.388 99.1202 36.876 99.1202 36.276V32.388H100.476V36.072C100.476 36.664 100.624 37.12 100.92 37.44C101.216 37.752 101.62 37.908 102.132 37.908C102.644 37.908 103.048 37.752 103.344 37.44C103.648 37.12 103.8 36.664 103.8 36.072V32.388H105.168ZM109.385 39.108C108.865 39.108 108.397 39.016 107.981 38.832C107.573 38.64 107.249 38.384 107.009 38.064C106.769 37.736 106.641 37.372 106.625 36.972H108.041C108.065 37.252 108.197 37.488 108.437 37.68C108.685 37.864 108.993 37.956 109.361 37.956C109.745 37.956 110.041 37.884 110.249 37.74C110.465 37.588 110.573 37.396 110.573 37.164C110.573 36.916 110.453 36.732 110.213 36.612C109.981 36.492 109.609 36.36 109.097 36.216C108.601 36.08 108.197 35.948 107.885 35.82C107.573 35.692 107.301 35.496 107.069 35.232C106.845 34.968 106.733 34.62 106.733 34.188C106.733 33.836 106.837 33.516 107.045 33.228C107.253 32.932 107.549 32.7 107.933 32.532C108.325 32.364 108.773 32.28 109.277 32.28C110.029 32.28 110.633 32.472 111.089 32.856C111.553 33.232 111.801 33.748 111.833 34.404H110.465C110.441 34.108 110.321 33.872 110.105 33.696C109.889 33.52 109.597 33.432 109.229 33.432C108.869 33.432 108.593 33.5 108.401 33.636C108.209 33.772 108.113 33.952 108.113 34.176C108.113 34.352 108.177 34.5 108.305 34.62C108.433 34.74 108.589 34.836 108.773 34.908C108.957 34.972 109.229 35.056 109.589 35.16C110.069 35.288 110.461 35.42 110.765 35.556C111.077 35.684 111.345 35.876 111.569 36.132C111.793 36.388 111.909 36.728 111.917 37.152C111.917 37.528 111.813 37.864 111.605 38.16C111.397 38.456 111.101 38.688 110.717 38.856C110.341 39.024 109.897 39.108 109.385 39.108ZM115.003 33.504V37.164C115.003 37.412 115.059 37.592 115.171 37.704C115.291 37.808 115.491 37.86 115.771 37.86H116.611V39H115.531C114.915 39 114.443 38.856 114.115 38.568C113.787 38.28 113.623 37.812 113.623 37.164V33.504H112.843V32.388H113.623V30.744H115.003V32.388H116.611V33.504H115.003ZM120.752 39.108C120.128 39.108 119.564 38.968 119.06 38.688C118.556 38.4 118.16 38 117.872 37.488C117.584 36.968 117.44 36.368 117.44 35.688C117.44 35.016 117.588 34.42 117.884 33.9C118.18 33.38 118.584 32.98 119.096 32.7C119.608 32.42 120.18 32.28 120.812 32.28C121.444 32.28 122.016 32.42 122.528 32.7C123.04 32.98 123.444 33.38 123.74 33.9C124.036 34.42 124.184 35.016 124.184 35.688C124.184 36.36 124.032 36.956 123.728 37.476C123.424 37.996 123.008 38.4 122.48 38.688C121.96 38.968 121.384 39.108 120.752 39.108ZM120.752 37.92C121.104 37.92 121.432 37.836 121.736 37.668C122.048 37.5 122.3 37.248 122.492 36.912C122.684 36.576 122.78 36.168 122.78 35.688C122.78 35.208 122.688 34.804 122.504 34.476C122.32 34.14 122.076 33.888 121.772 33.72C121.468 33.552 121.14 33.468 120.788 33.468C120.436 33.468 120.108 33.552 119.804 33.72C119.508 33.888 119.272 34.14 119.096 34.476C118.92 34.804 118.832 35.208 118.832 35.688C118.832 36.4 119.012 36.952 119.372 37.344C119.74 37.728 120.2 37.92 120.752 37.92ZM133.552 32.28C134.072 32.28 134.536 32.388 134.944 32.604C135.36 32.82 135.684 33.14 135.916 33.564C136.156 33.988 136.276 34.5 136.276 35.1V39H134.92V35.304C134.92 34.712 134.772 34.26 134.476 33.948C134.18 33.628 133.776 33.468 133.264 33.468C132.752 33.468 132.344 33.628 132.04 33.948C131.744 34.26 131.596 34.712 131.596 35.304V39H130.24V35.304C130.24 34.712 130.092 34.26 129.796 33.948C129.5 33.628 129.096 33.468 128.584 33.468C128.072 33.468 127.664 33.628 127.36 33.948C127.064 34.26 126.916 34.712 126.916 35.304V39H125.548V32.388H126.916V33.144C127.14 32.872 127.424 32.66 127.768 32.508C128.112 32.356 128.48 32.28 128.872 32.28C129.4 32.28 129.872 32.392 130.288 32.616C130.704 32.84 131.024 33.164 131.248 33.588C131.448 33.188 131.76 32.872 132.184 32.64C132.608 32.4 133.064 32.28 133.552 32.28ZM144.089 35.532C144.089 35.78 144.073 36.004 144.041 36.204H138.989C139.029 36.732 139.225 37.156 139.577 37.476C139.929 37.796 140.361 37.956 140.873 37.956C141.609 37.956 142.129 37.648 142.433 37.032H143.909C143.709 37.64 143.345 38.14 142.817 38.532C142.297 38.916 141.649 39.108 140.873 39.108C140.241 39.108 139.673 38.968 139.169 38.688C138.673 38.4 138.281 38 137.993 37.488C137.713 36.968 137.573 36.368 137.573 35.688C137.573 35.008 137.709 34.412 137.981 33.9C138.261 33.38 138.649 32.98 139.145 32.7C139.649 32.42 140.225 32.28 140.873 32.28C141.497 32.28 142.053 32.416 142.541 32.688C143.029 32.96 143.409 33.344 143.681 33.84C143.953 34.328 144.089 34.892 144.089 35.532ZM142.661 35.1C142.653 34.596 142.473 34.192 142.121 33.888C141.769 33.584 141.333 33.432 140.813 33.432C140.341 33.432 139.937 33.584 139.601 33.888C139.265 34.184 139.065 34.588 139.001 35.1H142.661ZM146.815 33.348C147.015 33.012 147.279 32.752 147.607 32.568C147.943 32.376 148.339 32.28 148.795 32.28V33.696H148.447C147.911 33.696 147.503 33.832 147.223 34.104C146.951 34.376 146.815 34.848 146.815 35.52V39H145.447V32.388H146.815V33.348ZM151.565 37.356L150.113 40.668H149.225L150.077 37.356H151.565ZM155.445 35.664C155.445 35 155.581 34.412 155.853 33.9C156.133 33.388 156.509 32.992 156.981 32.712C157.461 32.424 157.989 32.28 158.565 32.28C159.085 32.28 159.537 32.384 159.921 32.592C160.313 32.792 160.625 33.044 160.857 33.348V32.388H162.237V39H160.857V38.016C160.625 38.328 160.309 38.588 159.909 38.796C159.509 39.004 159.053 39.108 158.541 39.108C157.973 39.108 157.453 38.964 156.981 38.676C156.509 38.38 156.133 37.972 155.853 37.452C155.581 36.924 155.445 36.328 155.445 35.664ZM160.857 35.688C160.857 35.232 160.761 34.836 160.569 34.5C160.385 34.164 160.141 33.908 159.837 33.732C159.533 33.556 159.205 33.468 158.853 33.468C158.501 33.468 158.173 33.556 157.869 33.732C157.565 33.9 157.317 34.152 157.125 34.488C156.941 34.816 156.849 35.208 156.849 35.664C156.849 36.12 156.941 36.52 157.125 36.864C157.317 37.208 157.565 37.472 157.869 37.656C158.181 37.832 158.509 37.92 158.853 37.92C159.205 37.92 159.533 37.832 159.837 37.656C160.141 37.48 160.385 37.224 160.569 36.888C160.761 36.544 160.857 36.144 160.857 35.688ZM167.382 32.28C167.902 32.28 168.366 32.388 168.774 32.604C169.19 32.82 169.514 33.14 169.746 33.564C169.978 33.988 170.094 34.5 170.094 35.1V39H168.738V35.304C168.738 34.712 168.59 34.26 168.294 33.948C167.998 33.628 167.594 33.468 167.082 33.468C166.57 33.468 166.162 33.628 165.858 33.948C165.562 34.26 165.414 34.712 165.414 35.304V39H164.046V32.388H165.414V33.144C165.638 32.872 165.922 32.66 166.266 32.508C166.618 32.356 166.99 32.28 167.382 32.28ZM174.515 32.28C175.027 32.28 175.479 32.384 175.871 32.592C176.271 32.792 176.583 33.044 176.807 33.348V32.388H178.187V39.108C178.187 39.716 178.059 40.256 177.803 40.728C177.547 41.208 177.175 41.584 176.687 41.856C176.207 42.128 175.631 42.264 174.959 42.264C174.063 42.264 173.319 42.052 172.727 41.628C172.135 41.212 171.799 40.644 171.719 39.924H173.075C173.179 40.268 173.399 40.544 173.735 40.752C174.079 40.968 174.487 41.076 174.959 41.076C175.511 41.076 175.955 40.908 176.291 40.572C176.635 40.236 176.807 39.748 176.807 39.108V38.004C176.575 38.316 176.259 38.58 175.859 38.796C175.467 39.004 175.019 39.108 174.515 39.108C173.939 39.108 173.411 38.964 172.931 38.676C172.459 38.38 172.083 37.972 171.803 37.452C171.531 36.924 171.395 36.328 171.395 35.664C171.395 35 171.531 34.412 171.803 33.9C172.083 33.388 172.459 32.992 172.931 32.712C173.411 32.424 173.939 32.28 174.515 32.28ZM176.807 35.688C176.807 35.232 176.711 34.836 176.519 34.5C176.335 34.164 176.091 33.908 175.787 33.732C175.483 33.556 175.155 33.468 174.803 33.468C174.451 33.468 174.123 33.556 173.819 33.732C173.515 33.9 173.267 34.152 173.075 34.488C172.891 34.816 172.799 35.208 172.799 35.664C172.799 36.12 172.891 36.52 173.075 36.864C173.267 37.208 173.515 37.472 173.819 37.656C174.131 37.832 174.459 37.92 174.803 37.92C175.155 37.92 175.483 37.832 175.787 37.656C176.091 37.48 176.335 37.224 176.519 36.888C176.711 36.544 176.807 36.144 176.807 35.688ZM183.821 31.512C183.573 31.512 183.365 31.428 183.197 31.26C183.029 31.092 182.945 30.884 182.945 30.636C182.945 30.388 183.029 30.18 183.197 30.012C183.365 29.844 183.573 29.76 183.821 29.76C184.061 29.76 184.265 29.844 184.433 30.012C184.601 30.18 184.685 30.388 184.685 30.636C184.685 30.884 184.601 31.092 184.433 31.26C184.265 31.428 184.061 31.512 183.821 31.512ZM184.493 32.388V39H183.125V32.388H184.493ZM192.253 32.388L188.197 42.108H186.781L188.125 38.892L185.521 32.388H187.045L188.905 37.428L190.837 32.388H192.253ZM196.166 39.108C195.542 39.108 194.978 38.968 194.474 38.688C193.97 38.4 193.574 38 193.286 37.488C192.998 36.968 192.854 36.368 192.854 35.688C192.854 35.016 193.002 34.42 193.298 33.9C193.594 33.38 193.998 32.98 194.51 32.7C195.022 32.42 195.594 32.28 196.226 32.28C196.858 32.28 197.43 32.42 197.942 32.7C198.454 32.98 198.858 33.38 199.154 33.9C199.45 34.42 199.598 35.016 199.598 35.688C199.598 36.36 199.446 36.956 199.142 37.476C198.838 37.996 198.422 38.4 197.894 38.688C197.374 38.968 196.798 39.108 196.166 39.108ZM196.166 37.92C196.518 37.92 196.846 37.836 197.15 37.668C197.462 37.5 197.714 37.248 197.906 36.912C198.098 36.576 198.194 36.168 198.194 35.688C198.194 35.208 198.102 34.804 197.918 34.476C197.734 34.14 197.49 33.888 197.186 33.72C196.882 33.552 196.554 33.468 196.202 33.468C195.85 33.468 195.522 33.552 195.218 33.72C194.922 33.888 194.686 34.14 194.51 34.476C194.334 34.804 194.246 35.208 194.246 35.688C194.246 36.4 194.426 36.952 194.786 37.344C195.154 37.728 195.614 37.92 196.166 37.92ZM204.298 32.28C204.818 32.28 205.282 32.388 205.69 32.604C206.106 32.82 206.43 33.14 206.662 33.564C206.894 33.988 207.01 34.5 207.01 35.1V39H205.654V35.304C205.654 34.712 205.506 34.26 205.21 33.948C204.914 33.628 204.51 33.468 203.998 33.468C203.486 33.468 203.078 33.628 202.774 33.948C202.478 34.26 202.33 34.712 202.33 35.304V39H200.962V32.388H202.33V33.144C202.554 32.872 202.838 32.66 203.182 32.508C203.534 32.356 203.906 32.28 204.298 32.28ZM211.431 32.28C211.943 32.28 212.395 32.384 212.787 32.592C213.187 32.792 213.499 33.044 213.723 33.348V32.388H215.103V39.108C215.103 39.716 214.975 40.256 214.719 40.728C214.463 41.208 214.091 41.584 213.603 41.856C213.123 42.128 212.547 42.264 211.875 42.264C210.979 42.264 210.235 42.052 209.643 41.628C209.051 41.212 208.715 40.644 208.635 39.924H209.991C210.095 40.268 210.315 40.544 210.651 40.752C210.995 40.968 211.403 41.076 211.875 41.076C212.427 41.076 212.871 40.908 213.207 40.572C213.551 40.236 213.723 39.748 213.723 39.108V38.004C213.491 38.316 213.175 38.58 212.775 38.796C212.383 39.004 211.935 39.108 211.431 39.108C210.855 39.108 210.327 38.964 209.847 38.676C209.375 38.38 208.999 37.972 208.719 37.452C208.447 36.924 208.311 36.328 208.311 35.664C208.311 35 208.447 34.412 208.719 33.9C208.999 33.388 209.375 32.992 209.847 32.712C210.327 32.424 210.855 32.28 211.431 32.28ZM213.723 35.688C213.723 35.232 213.627 34.836 213.435 34.5C213.251 34.164 213.007 33.908 212.703 33.732C212.399 33.556 212.071 33.468 211.719 33.468C211.367 33.468 211.039 33.556 210.735 33.732C210.431 33.9 210.183 34.152 209.991 34.488C209.807 34.816 209.715 35.208 209.715 35.664C209.715 36.12 209.807 36.52 209.991 36.864C210.183 37.208 210.431 37.472 210.735 37.656C211.047 37.832 211.375 37.92 211.719 37.92C212.071 37.92 212.399 37.832 212.703 37.656C213.007 37.48 213.251 37.224 213.435 36.888C213.627 36.544 213.723 36.144 213.723 35.688ZM31.444 53.664C31.444 53 31.58 52.412 31.852 51.9C32.132 51.388 32.508 50.992 32.98 50.712C33.46 50.424 33.988 50.28 34.564 50.28C35.084 50.28 35.536 50.384 35.92 50.592C36.312 50.792 36.624 51.044 36.856 51.348V50.388H38.236V57H36.856V56.016C36.624 56.328 36.308 56.588 35.908 56.796C35.508 57.004 35.052 57.108 34.54 57.108C33.972 57.108 33.452 56.964 32.98 56.676C32.508 56.38 32.132 55.972 31.852 55.452C31.58 54.924 31.444 54.328 31.444 53.664ZM36.856 53.688C36.856 53.232 36.76 52.836 36.568 52.5C36.384 52.164 36.14 51.908 35.836 51.732C35.532 51.556 35.204 51.468 34.852 51.468C34.5 51.468 34.172 51.556 33.868 51.732C33.564 51.9 33.316 52.152 33.124 52.488C32.94 52.816 32.848 53.208 32.848 53.664C32.848 54.12 32.94 54.52 33.124 54.864C33.316 55.208 33.564 55.472 33.868 55.656C34.18 55.832 34.508 55.92 34.852 55.92C35.204 55.92 35.532 55.832 35.836 55.656C36.14 55.48 36.384 55.224 36.568 54.888C36.76 54.544 36.856 54.144 36.856 53.688ZM39.5888 53.688C39.5888 53.008 39.7248 52.412 39.9968 51.9C40.2768 51.38 40.6608 50.98 41.1488 50.7C41.6368 50.42 42.1968 50.28 42.8288 50.28C43.6288 50.28 44.2888 50.472 44.8088 50.856C45.3368 51.232 45.6928 51.772 45.8768 52.476H44.4008C44.2808 52.148 44.0888 51.892 43.8248 51.708C43.5608 51.524 43.2288 51.432 42.8288 51.432C42.2688 51.432 41.8208 51.632 41.4848 52.032C41.1568 52.424 40.9928 52.976 40.9928 53.688C40.9928 54.4 41.1568 54.956 41.4848 55.356C41.8208 55.756 42.2688 55.956 42.8288 55.956C43.6208 55.956 44.1448 55.608 44.4008 54.912H45.8768C45.6848 55.584 45.3248 56.12 44.7968 56.52C44.2688 56.912 43.6128 57.108 42.8288 57.108C42.1968 57.108 41.6368 56.968 41.1488 56.688C40.6608 56.4 40.2768 56 39.9968 55.488C39.7248 54.968 39.5888 54.368 39.5888 53.688ZM46.7961 53.688C46.7961 53.008 46.9321 52.412 47.2041 51.9C47.4841 51.38 47.8681 50.98 48.3561 50.7C48.8441 50.42 49.4041 50.28 50.0361 50.28C50.8361 50.28 51.4961 50.472 52.0161 50.856C52.5441 51.232 52.9001 51.772 53.0841 52.476H51.6081C51.4881 52.148 51.2961 51.892 51.0321 51.708C50.7681 51.524 50.4361 51.432 50.0361 51.432C49.4761 51.432 49.0281 51.632 48.6921 52.032C48.3641 52.424 48.2001 52.976 48.2001 53.688C48.2001 54.4 48.3641 54.956 48.6921 55.356C49.0281 55.756 49.4761 55.956 50.0361 55.956C50.8281 55.956 51.3521 55.608 51.6081 54.912H53.0841C52.8921 55.584 52.5321 56.12 52.0041 56.52C51.4761 56.912 50.8201 57.108 50.0361 57.108C49.4041 57.108 48.8441 56.968 48.3561 56.688C47.8681 56.4 47.4841 56 47.2041 55.488C46.9321 54.968 46.7961 54.368 46.7961 53.688ZM57.3274 57.108C56.7034 57.108 56.1394 56.968 55.6354 56.688C55.1314 56.4 54.7354 56 54.4474 55.488C54.1594 54.968 54.0154 54.368 54.0154 53.688C54.0154 53.016 54.1634 52.42 54.4594 51.9C54.7554 51.38 55.1594 50.98 55.6714 50.7C56.1834 50.42 56.7554 50.28 57.3874 50.28C58.0194 50.28 58.5914 50.42 59.1034 50.7C59.6154 50.98 60.0194 51.38 60.3154 51.9C60.6114 52.42 60.7594 53.016 60.7594 53.688C60.7594 54.36 60.6074 54.956 60.3034 55.476C59.9994 55.996 59.5834 56.4 59.0554 56.688C58.5354 56.968 57.9594 57.108 57.3274 57.108ZM57.3274 55.92C57.6794 55.92 58.0074 55.836 58.3114 55.668C58.6234 55.5 58.8754 55.248 59.0674 54.912C59.2594 54.576 59.3554 54.168 59.3554 53.688C59.3554 53.208 59.2634 52.804 59.0794 52.476C58.8954 52.14 58.6514 51.888 58.3474 51.72C58.0434 51.552 57.7154 51.468 57.3634 51.468C57.0114 51.468 56.6834 51.552 56.3794 51.72C56.0834 51.888 55.8474 52.14 55.6714 52.476C55.4954 52.804 55.4074 53.208 55.4074 53.688C55.4074 54.4 55.5874 54.952 55.9474 55.344C56.3154 55.728 56.7754 55.92 57.3274 55.92ZM68.1118 50.388V57H66.7438V56.22C66.5278 56.492 66.2438 56.708 65.8918 56.868C65.5478 57.02 65.1798 57.096 64.7878 57.096C64.2678 57.096 63.7998 56.988 63.3838 56.772C62.9758 56.556 62.6518 56.236 62.4118 55.812C62.1798 55.388 62.0638 54.876 62.0638 54.276V50.388H63.4198V54.072C63.4198 54.664 63.5678 55.12 63.8638 55.44C64.1598 55.752 64.5638 55.908 65.0758 55.908C65.5878 55.908 65.9918 55.752 66.2878 55.44C66.5918 55.12 66.7438 54.664 66.7438 54.072V50.388H68.1118ZM73.2648 50.28C73.7848 50.28 74.2488 50.388 74.6568 50.604C75.0728 50.82 75.3968 51.14 75.6288 51.564C75.8608 51.988 75.9768 52.5 75.9768 53.1V57H74.6208V53.304C74.6208 52.712 74.4728 52.26 74.1768 51.948C73.8808 51.628 73.4768 51.468 72.9648 51.468C72.4528 51.468 72.0448 51.628 71.7408 51.948C71.4448 52.26 71.2968 52.712 71.2968 53.304V57H69.9288V50.388H71.2968V51.144C71.5208 50.872 71.8048 50.66 72.1488 50.508C72.5008 50.356 72.8728 50.28 73.2648 50.28ZM79.3297 51.504V55.164C79.3297 55.412 79.3857 55.592 79.4977 55.704C79.6177 55.808 79.8177 55.86 80.0977 55.86H80.9377V57H79.8577C79.2417 57 78.7697 56.856 78.4417 56.568C78.1137 56.28 77.9497 55.812 77.9497 55.164V51.504H77.1697V50.388H77.9497V48.744H79.3297V50.388H80.9377V51.504H79.3297ZM84.8838 53.664C84.8838 53 85.0198 52.412 85.2918 51.9C85.5718 51.388 85.9478 50.992 86.4198 50.712C86.8998 50.424 87.4278 50.28 88.0038 50.28C88.5238 50.28 88.9758 50.384 89.3598 50.592C89.7518 50.792 90.0638 51.044 90.2958 51.348V50.388H91.6758V57H90.2958V56.016C90.0638 56.328 89.7478 56.588 89.3478 56.796C88.9478 57.004 88.4918 57.108 87.9798 57.108C87.4118 57.108 86.8918 56.964 86.4198 56.676C85.9478 56.38 85.5718 55.972 85.2918 55.452C85.0198 54.924 84.8838 54.328 84.8838 53.664ZM90.2958 53.688C90.2958 53.232 90.1998 52.836 90.0078 52.5C89.8238 52.164 89.5798 51.908 89.2758 51.732C88.9718 51.556 88.6438 51.468 88.2918 51.468C87.9398 51.468 87.6118 51.556 87.3078 51.732C87.0038 51.9 86.7558 52.152 86.5638 52.488C86.3798 52.816 86.2878 53.208 86.2878 53.664C86.2878 54.12 86.3798 54.52 86.5638 54.864C86.7558 55.208 87.0038 55.472 87.3078 55.656C87.6198 55.832 87.9478 55.92 88.2918 55.92C88.6438 55.92 88.9718 55.832 89.2758 55.656C89.5798 55.48 89.8238 55.224 90.0078 54.888C90.1998 54.544 90.2958 54.144 90.2958 53.688ZM99.4366 50.388L95.3806 60.108H93.9646L95.3086 56.892L92.7046 50.388H94.2286L96.0886 55.428L98.0206 50.388H99.4366ZM204.92 48.66V57H203.552V48.66H204.92ZM211.804 52.08V53.232H206.872V52.08H211.804ZM216.315 55.776L218.187 50.388H219.639L217.119 57H215.487L212.979 50.388H214.443L216.315 55.776ZM226.745 53.532C226.745 53.78 226.729 54.004 226.697 54.204H221.645C221.685 54.732 221.881 55.156 222.233 55.476C222.585 55.796 223.017 55.956 223.529 55.956C224.265 55.956 224.785 55.648 225.089 55.032H226.565C226.365 55.64 226.001 56.14 225.473 56.532C224.953 56.916 224.305 57.108 223.529 57.108C222.897 57.108 222.329 56.968 221.825 56.688C221.329 56.4 220.937 56 220.649 55.488C220.369 54.968 220.229 54.368 220.229 53.688C220.229 53.008 220.365 52.412 220.637 51.9C220.917 51.38 221.305 50.98 221.801 50.7C222.305 50.42 222.881 50.28 223.529 50.28C224.153 50.28 224.709 50.416 225.197 50.688C225.685 50.96 226.065 51.344 226.337 51.84C226.609 52.328 226.745 52.892 226.745 53.532ZM225.317 53.1C225.309 52.596 225.129 52.192 224.777 51.888C224.425 51.584 223.989 51.432 223.469 51.432C222.997 51.432 222.593 51.584 222.257 51.888C221.921 52.184 221.721 52.588 221.657 53.1H225.317ZM229.471 51.348C229.671 51.012 229.935 50.752 230.263 50.568C230.599 50.376 230.995 50.28 231.451 50.28V51.696H231.103C230.567 51.696 230.159 51.832 229.879 52.104C229.607 52.376 229.471 52.848 229.471 53.52V57H228.103V50.388H229.471V51.348ZM233.417 49.512C233.169 49.512 232.961 49.428 232.793 49.26C232.625 49.092 232.541 48.884 232.541 48.636C232.541 48.388 232.625 48.18 232.793 48.012C232.961 47.844 233.169 47.76 233.417 47.76C233.657 47.76 233.861 47.844 234.029 48.012C234.197 48.18 234.281 48.388 234.281 48.636C234.281 48.884 234.197 49.092 234.029 49.26C233.861 49.428 233.657 49.512 233.417 49.512ZM234.089 50.388V57H232.721V50.388H234.089ZM238.669 51.504H237.445V57H236.065V51.504H235.285V50.388H236.065V49.92C236.065 49.16 236.265 48.608 236.665 48.264C237.073 47.912 237.709 47.736 238.573 47.736V48.876C238.157 48.876 237.865 48.956 237.697 49.116C237.529 49.268 237.445 49.536 237.445 49.92V50.388H238.669V51.504ZM245.845 50.388L241.789 60.108H240.373L241.717 56.892L239.113 50.388H240.637L242.497 55.428L244.429 50.388H245.845ZM83.9895 75.108C83.4695 75.108 83.0015 75.016 82.5855 74.832C82.1775 74.64 81.8535 74.384 81.6135 74.064C81.3735 73.736 81.2455 73.372 81.2295 72.972H82.6455C82.6695 73.252 82.8015 73.488 83.0415 73.68C83.2895 73.864 83.5975 73.956 83.9655 73.956C84.3495 73.956 84.6455 73.884 84.8535 73.74C85.0695 73.588 85.1775 73.396 85.1775 73.164C85.1775 72.916 85.0575 72.732 84.8175 72.612C84.5855 72.492 84.2135 72.36 83.7015 72.216C83.2055 72.08 82.8015 71.948 82.4895 71.82C82.1775 71.692 81.9055 71.496 81.6735 71.232C81.4495 70.968 81.3375 70.62 81.3375 70.188C81.3375 69.836 81.4415 69.516 81.6495 69.228C81.8575 68.932 82.1535 68.7 82.5375 68.532C82.9295 68.364 83.3775 68.28 83.8815 68.28C84.6335 68.28 85.2375 68.472 85.6935 68.856C86.1575 69.232 86.4055 69.748 86.4375 70.404H85.0695C85.0455 70.108 84.9255 69.872 84.7095 69.696C84.4935 69.52 84.2015 69.432 83.8335 69.432C83.4735 69.432 83.1975 69.5 83.0055 69.636C82.8135 69.772 82.7175 69.952 82.7175 70.176C82.7175 70.352 82.7815 70.5 82.9095 70.62C83.0375 70.74 83.1935 70.836 83.3775 70.908C83.5615 70.972 83.8335 71.056 84.1935 71.16C84.6735 71.288 85.0655 71.42 85.3695 71.556C85.6815 71.684 85.9495 71.876 86.1735 72.132C86.3975 72.388 86.5135 72.728 86.5215 73.152C86.5215 73.528 86.4175 73.864 86.2095 74.16C86.0015 74.456 85.7055 74.688 85.3215 74.856C84.9455 75.024 84.5015 75.108 83.9895 75.108ZM87.5556 71.664C87.5556 71 87.6916 70.412 87.9636 69.9C88.2436 69.388 88.6196 68.992 89.0916 68.712C89.5716 68.424 90.0996 68.28 90.6756 68.28C91.1956 68.28 91.6476 68.384 92.0316 68.592C92.4236 68.792 92.7356 69.044 92.9676 69.348V68.388H94.3476V75H92.9676V74.016C92.7356 74.328 92.4196 74.588 92.0196 74.796C91.6196 75.004 91.1636 75.108 90.6516 75.108C90.0836 75.108 89.5636 74.964 89.0916 74.676C88.6196 74.38 88.2436 73.972 87.9636 73.452C87.6916 72.924 87.5556 72.328 87.5556 71.664ZM92.9676 71.688C92.9676 71.232 92.8716 70.836 92.6796 70.5C92.4956 70.164 92.2516 69.908 91.9476 69.732C91.6436 69.556 91.3156 69.468 90.9636 69.468C90.6116 69.468 90.2836 69.556 89.9796 69.732C89.6756 69.9 89.4276 70.152 89.2356 70.488C89.0516 70.816 88.9596 71.208 88.9596 71.664C88.9596 72.12 89.0516 72.52 89.2356 72.864C89.4276 73.208 89.6756 73.472 89.9796 73.656C90.2916 73.832 90.6196 73.92 90.9636 73.92C91.3156 73.92 91.6436 73.832 91.9476 73.656C92.2516 73.48 92.4956 73.224 92.6796 72.888C92.8716 72.544 92.9676 72.144 92.9676 71.688ZM96.7084 75.084C96.4604 75.084 96.2524 75 96.0844 74.832C95.9164 74.664 95.8324 74.456 95.8324 74.208C95.8324 73.96 95.9164 73.752 96.0844 73.584C96.2524 73.416 96.4604 73.332 96.7084 73.332C96.9484 73.332 97.1524 73.416 97.3204 73.584C97.4884 73.752 97.5724 73.96 97.5724 74.208C97.5724 74.456 97.4884 74.664 97.3204 74.832C97.1524 75 96.9484 75.084 96.7084 75.084ZM96.7084 70.044C96.4604 70.044 96.2524 69.96 96.0844 69.792C95.9164 69.624 95.8324 69.416 95.8324 69.168C95.8324 68.92 95.9164 68.712 96.0844 68.544C96.2524 68.376 96.4604 68.292 96.7084 68.292C96.9484 68.292 97.1524 68.376 97.3204 68.544C97.4884 68.712 97.5724 68.92 97.5724 69.168C97.5724 69.416 97.4884 69.624 97.3204 69.792C97.1524 69.96 96.9484 70.044 96.7084 70.044Z" fill="black"/>
<path d="M224.505 34.716C224.953 34.796 225.333 35.032 225.645 35.424C225.957 35.816 226.113 36.26 226.113 36.756C226.113 37.18 226.001 37.564 225.777 37.908C225.561 38.244 225.245 38.512 224.829 38.712C224.413 38.904 223.929 39 223.377 39H220.041V30.66H223.221C223.789 30.66 224.277 30.756 224.685 30.948C225.093 31.14 225.401 31.4 225.609 31.728C225.817 32.048 225.921 32.408 225.921 32.808C225.921 33.288 225.793 33.688 225.537 34.008C225.281 34.328 224.937 34.564 224.505 34.716ZM221.409 34.164H223.101C223.549 34.164 223.897 34.064 224.145 33.864C224.401 33.656 224.529 33.36 224.529 32.976C224.529 32.6 224.401 32.308 224.145 32.1C223.897 31.884 223.549 31.776 223.101 31.776H221.409V34.164ZM223.257 37.884C223.721 37.884 224.085 37.772 224.349 37.548C224.613 37.324 224.745 37.012 224.745 36.612C224.745 36.204 224.605 35.88 224.325 35.64C224.045 35.4 223.673 35.28 223.209 35.28H221.409V37.884H223.257ZM230.336 30.66C231.224 30.66 232 30.832 232.664 31.176C233.336 31.512 233.852 32 234.212 32.64C234.58 33.272 234.764 34.012 234.764 34.86C234.764 35.708 234.58 36.444 234.212 37.068C233.852 37.692 233.336 38.172 232.664 38.508C232 38.836 231.224 39 230.336 39H227.612V30.66H230.336ZM230.336 37.884C231.312 37.884 232.06 37.62 232.58 37.092C233.1 36.564 233.36 35.82 233.36 34.86C233.36 33.892 233.1 33.136 232.58 32.592C232.06 32.048 231.312 31.776 230.336 31.776H228.98V37.884H230.336ZM239.935 39.084C239.159 39.084 238.443 38.904 237.787 38.544C237.139 38.176 236.623 37.668 236.239 37.02C235.863 36.364 235.675 35.628 235.675 34.812C235.675 33.996 235.863 33.264 236.239 32.616C236.623 31.968 237.139 31.464 237.787 31.104C238.443 30.736 239.159 30.552 239.935 30.552C240.719 30.552 241.435 30.736 242.083 31.104C242.739 31.464 243.255 31.968 243.631 32.616C244.007 33.264 244.195 33.996 244.195 34.812C244.195 35.628 244.007 36.364 243.631 37.02C243.255 37.668 242.739 38.176 242.083 38.544C241.435 38.904 240.719 39.084 239.935 39.084ZM239.935 37.896C240.487 37.896 240.979 37.772 241.411 37.524C241.843 37.268 242.179 36.908 242.419 36.444C242.667 35.972 242.791 35.428 242.791 34.812C242.791 34.196 242.667 33.656 242.419 33.192C242.179 32.728 241.843 32.372 241.411 32.124C240.979 31.876 240.487 31.752 239.935 31.752C239.383 31.752 238.891 31.876 238.459 32.124C238.027 32.372 237.687 32.728 237.439 33.192C237.199 33.656 237.079 34.196 237.079 34.812C237.079 35.428 237.199 35.972 237.439 36.444C237.687 36.908 238.027 37.268 238.459 37.524C238.891 37.772 239.383 37.896 239.935 37.896ZM111.614 50.28C112.134 50.28 112.598 50.388 113.006 50.604C113.422 50.82 113.746 51.14 113.978 51.564C114.218 51.988 114.338 52.5 114.338 53.1V57H112.982V53.304C112.982 52.712 112.834 52.26 112.538 51.948C112.242 51.628 111.838 51.468 111.326 51.468C110.814 51.468 110.406 51.628 110.102 51.948C109.806 52.26 109.658 52.712 109.658 53.304V57H108.302V53.304C108.302 52.712 108.154 52.26 107.858 51.948C107.562 51.628 107.158 51.468 106.646 51.468C106.134 51.468 105.726 51.628 105.422 51.948C105.126 52.26 104.978 52.712 104.978 53.304V57H103.61V50.388H104.978V51.144C105.202 50.872 105.486 50.66 105.83 50.508C106.174 50.356 106.542 50.28 106.934 50.28C107.462 50.28 107.934 50.392 108.35 50.616C108.766 50.84 109.086 51.164 109.31 51.588C109.51 51.188 109.822 50.872 110.246 50.64C110.67 50.4 111.126 50.28 111.614 50.28ZM115.635 53.664C115.635 53 115.771 52.412 116.043 51.9C116.323 51.388 116.699 50.992 117.171 50.712C117.651 50.424 118.179 50.28 118.755 50.28C119.275 50.28 119.727 50.384 120.111 50.592C120.503 50.792 120.815 51.044 121.047 51.348V50.388H122.427V57H121.047V56.016C120.815 56.328 120.499 56.588 120.099 56.796C119.699 57.004 119.243 57.108 118.731 57.108C118.163 57.108 117.643 56.964 117.171 56.676C116.699 56.38 116.323 55.972 116.043 55.452C115.771 54.924 115.635 54.328 115.635 53.664ZM121.047 53.688C121.047 53.232 120.951 52.836 120.759 52.5C120.575 52.164 120.331 51.908 120.027 51.732C119.723 51.556 119.395 51.468 119.043 51.468C118.691 51.468 118.363 51.556 118.059 51.732C117.755 51.9 117.507 52.152 117.315 52.488C117.131 52.816 117.039 53.208 117.039 53.664C117.039 54.12 117.131 54.52 117.315 54.864C117.507 55.208 117.755 55.472 118.059 55.656C118.371 55.832 118.699 55.92 119.043 55.92C119.395 55.92 119.723 55.832 120.027 55.656C120.331 55.48 120.575 55.224 120.759 54.888C120.951 54.544 121.047 54.144 121.047 53.688ZM126.636 57.108C126.116 57.108 125.648 57.016 125.232 56.832C124.824 56.64 124.5 56.384 124.26 56.064C124.02 55.736 123.892 55.372 123.876 54.972H125.292C125.316 55.252 125.448 55.488 125.688 55.68C125.936 55.864 126.244 55.956 126.612 55.956C126.996 55.956 127.292 55.884 127.5 55.74C127.716 55.588 127.824 55.396 127.824 55.164C127.824 54.916 127.704 54.732 127.464 54.612C127.232 54.492 126.86 54.36 126.348 54.216C125.852 54.08 125.448 53.948 125.136 53.82C124.824 53.692 124.552 53.496 124.32 53.232C124.096 52.968 123.984 52.62 123.984 52.188C123.984 51.836 124.088 51.516 124.296 51.228C124.504 50.932 124.8 50.7 125.184 50.532C125.576 50.364 126.024 50.28 126.528 50.28C127.28 50.28 127.884 50.472 128.34 50.856C128.804 51.232 129.052 51.748 129.084 52.404H127.716C127.692 52.108 127.572 51.872 127.356 51.696C127.14 51.52 126.848 51.432 126.48 51.432C126.12 51.432 125.844 51.5 125.652 51.636C125.46 51.772 125.364 51.952 125.364 52.176C125.364 52.352 125.428 52.5 125.556 52.62C125.684 52.74 125.84 52.836 126.024 52.908C126.208 52.972 126.48 53.056 126.84 53.16C127.32 53.288 127.712 53.42 128.016 53.556C128.328 53.684 128.596 53.876 128.82 54.132C129.044 54.388 129.16 54.728 129.168 55.152C129.168 55.528 129.064 55.864 128.856 56.16C128.648 56.456 128.352 56.688 127.968 56.856C127.592 57.024 127.148 57.108 126.636 57.108ZM133.526 57.108C132.902 57.108 132.338 56.968 131.834 56.688C131.33 56.4 130.934 56 130.646 55.488C130.358 54.968 130.214 54.368 130.214 53.688C130.214 53.016 130.362 52.42 130.658 51.9C130.954 51.38 131.358 50.98 131.87 50.7C132.382 50.42 132.954 50.28 133.586 50.28C134.218 50.28 134.79 50.42 135.302 50.7C135.814 50.98 136.218 51.38 136.514 51.9C136.81 52.42 136.958 53.016 136.958 53.688C136.958 54.36 136.806 54.956 136.502 55.476C136.198 55.996 135.782 56.4 135.254 56.688C134.734 56.968 134.158 57.108 133.526 57.108ZM133.526 55.92C133.878 55.92 134.206 55.836 134.51 55.668C134.822 55.5 135.074 55.248 135.266 54.912C135.458 54.576 135.554 54.168 135.554 53.688C135.554 53.208 135.462 52.804 135.278 52.476C135.094 52.14 134.85 51.888 134.546 51.72C134.242 51.552 133.914 51.468 133.562 51.468C133.21 51.468 132.882 51.552 132.578 51.72C132.282 51.888 132.046 52.14 131.87 52.476C131.694 52.804 131.606 53.208 131.606 53.688C131.606 54.4 131.786 54.952 132.146 55.344C132.514 55.728 132.974 55.92 133.526 55.92ZM143.398 52.08V53.232H138.466V52.08H143.398ZM147.754 57.108C147.234 57.108 146.766 57.016 146.35 56.832C145.942 56.64 145.618 56.384 145.378 56.064C145.138 55.736 145.01 55.372 144.994 54.972H146.41C146.434 55.252 146.566 55.488 146.806 55.68C147.054 55.864 147.362 55.956 147.73 55.956C148.114 55.956 148.41 55.884 148.618 55.74C148.834 55.588 148.942 55.396 148.942 55.164C148.942 54.916 148.822 54.732 148.582 54.612C148.35 54.492 147.978 54.36 147.466 54.216C146.97 54.08 146.566 53.948 146.254 53.82C145.942 53.692 145.67 53.496 145.438 53.232C145.214 52.968 145.102 52.62 145.102 52.188C145.102 51.836 145.206 51.516 145.414 51.228C145.622 50.932 145.918 50.7 146.302 50.532C146.694 50.364 147.142 50.28 147.646 50.28C148.398 50.28 149.002 50.472 149.458 50.856C149.922 51.232 150.17 51.748 150.202 52.404H148.834C148.81 52.108 148.69 51.872 148.474 51.696C148.258 51.52 147.966 51.432 147.598 51.432C147.238 51.432 146.962 51.5 146.77 51.636C146.578 51.772 146.482 51.952 146.482 52.176C146.482 52.352 146.546 52.5 146.674 52.62C146.802 52.74 146.958 52.836 147.142 52.908C147.326 52.972 147.598 53.056 147.958 53.16C148.438 53.288 148.83 53.42 149.134 53.556C149.446 53.684 149.714 53.876 149.938 54.132C150.162 54.388 150.278 54.728 150.286 55.152C150.286 55.528 150.182 55.864 149.974 56.16C149.766 56.456 149.47 56.688 149.086 56.856C148.71 57.024 148.266 57.108 147.754 57.108ZM157.764 50.388V57H156.396V56.22C156.18 56.492 155.896 56.708 155.544 56.868C155.2 57.02 154.832 57.096 154.44 57.096C153.92 57.096 153.452 56.988 153.036 56.772C152.628 56.556 152.304 56.236 152.064 55.812C151.832 55.388 151.716 54.876 151.716 54.276V50.388H153.072V54.072C153.072 54.664 153.22 55.12 153.516 55.44C153.812 55.752 154.216 55.908 154.728 55.908C155.24 55.908 155.644 55.752 155.94 55.44C156.244 55.12 156.396 54.664 156.396 54.072V50.388H157.764ZM161.981 57.108C161.461 57.108 160.993 57.016 160.577 56.832C160.169 56.64 159.845 56.384 159.605 56.064C159.365 55.736 159.237 55.372 159.221 54.972H160.637C160.661 55.252 160.793 55.488 161.033 55.68C161.281 55.864 161.589 55.956 161.957 55.956C162.341 55.956 162.637 55.884 162.845 55.74C163.061 55.588 163.169 55.396 163.169 55.164C163.169 54.916 163.049 54.732 162.809 54.612C162.577 54.492 162.205 54.36 161.693 54.216C161.197 54.08 160.793 53.948 160.481 53.82C160.169 53.692 159.897 53.496 159.665 53.232C159.441 52.968 159.329 52.62 159.329 52.188C159.329 51.836 159.433 51.516 159.641 51.228C159.849 50.932 160.145 50.7 160.529 50.532C160.921 50.364 161.369 50.28 161.873 50.28C162.625 50.28 163.229 50.472 163.685 50.856C164.149 51.232 164.397 51.748 164.429 52.404H163.061C163.037 52.108 162.917 51.872 162.701 51.696C162.485 51.52 162.193 51.432 161.825 51.432C161.465 51.432 161.189 51.5 160.997 51.636C160.805 51.772 160.709 51.952 160.709 52.176C160.709 52.352 160.773 52.5 160.901 52.62C161.029 52.74 161.185 52.836 161.369 52.908C161.553 52.972 161.825 53.056 162.185 53.16C162.665 53.288 163.057 53.42 163.361 53.556C163.673 53.684 163.941 53.876 164.165 54.132C164.389 54.388 164.505 54.728 164.513 55.152C164.513 55.528 164.409 55.864 164.201 56.16C163.993 56.456 163.697 56.688 163.313 56.856C162.937 57.024 162.493 57.108 161.981 57.108ZM167.371 51.36C167.603 51.056 167.919 50.8 168.319 50.592C168.719 50.384 169.171 50.28 169.675 50.28C170.251 50.28 170.775 50.424 171.247 50.712C171.727 50.992 172.103 51.388 172.375 51.9C172.647 52.412 172.783 53 172.783 53.664C172.783 54.328 172.647 54.924 172.375 55.452C172.103 55.972 171.727 56.38 171.247 56.676C170.775 56.964 170.251 57.108 169.675 57.108C169.171 57.108 168.723 57.008 168.331 56.808C167.939 56.6 167.619 56.344 167.371 56.04V60.144H166.003V50.388H167.371V51.36ZM171.391 53.664C171.391 53.208 171.295 52.816 171.103 52.488C170.919 52.152 170.671 51.9 170.359 51.732C170.055 51.556 169.727 51.468 169.375 51.468C169.031 51.468 168.703 51.556 168.391 51.732C168.087 51.908 167.839 52.164 167.647 52.5C167.463 52.836 167.371 53.232 167.371 53.688C167.371 54.144 167.463 54.544 167.647 54.888C167.839 55.224 168.087 55.48 168.391 55.656C168.703 55.832 169.031 55.92 169.375 55.92C169.727 55.92 170.055 55.832 170.359 55.656C170.671 55.472 170.919 55.208 171.103 54.864C171.295 54.52 171.391 54.12 171.391 53.664ZM180.208 53.532C180.208 53.78 180.192 54.004 180.16 54.204H175.108C175.148 54.732 175.344 55.156 175.696 55.476C176.048 55.796 176.48 55.956 176.992 55.956C177.728 55.956 178.248 55.648 178.552 55.032H180.028C179.828 55.64 179.464 56.14 178.936 56.532C178.416 56.916 177.768 57.108 176.992 57.108C176.36 57.108 175.792 56.968 175.288 56.688C174.792 56.4 174.4 56 174.112 55.488C173.832 54.968 173.692 54.368 173.692 53.688C173.692 53.008 173.828 52.412 174.1 51.9C174.38 51.38 174.768 50.98 175.264 50.7C175.768 50.42 176.344 50.28 176.992 50.28C177.616 50.28 178.172 50.416 178.66 50.688C179.148 50.96 179.528 51.344 179.8 51.84C180.072 52.328 180.208 52.892 180.208 53.532ZM178.78 53.1C178.772 52.596 178.592 52.192 178.24 51.888C177.888 51.584 177.452 51.432 176.932 51.432C176.46 51.432 176.056 51.584 175.72 51.888C175.384 52.184 175.184 52.588 175.12 53.1H178.78ZM184.902 50.28C185.422 50.28 185.886 50.388 186.294 50.604C186.71 50.82 187.034 51.14 187.266 51.564C187.498 51.988 187.614 52.5 187.614 53.1V57H186.258V53.304C186.258 52.712 186.11 52.26 185.814 51.948C185.518 51.628 185.114 51.468 184.602 51.468C184.09 51.468 183.682 51.628 183.378 51.948C183.082 52.26 182.934 52.712 182.934 53.304V57H181.566V50.388H182.934V51.144C183.158 50.872 183.442 50.66 183.786 50.508C184.138 50.356 184.51 50.28 184.902 50.28ZM188.915 53.664C188.915 53 189.051 52.412 189.323 51.9C189.603 51.388 189.979 50.992 190.451 50.712C190.931 50.424 191.463 50.28 192.047 50.28C192.479 50.28 192.903 50.376 193.319 50.568C193.743 50.752 194.079 51 194.327 51.312V48.12H195.707V57H194.327V56.004C194.103 56.324 193.791 56.588 193.391 56.796C192.999 57.004 192.547 57.108 192.035 57.108C191.459 57.108 190.931 56.964 190.451 56.676C189.979 56.38 189.603 55.972 189.323 55.452C189.051 54.924 188.915 54.328 188.915 53.664ZM194.327 53.688C194.327 53.232 194.231 52.836 194.039 52.5C193.855 52.164 193.611 51.908 193.307 51.732C193.003 51.556 192.675 51.468 192.323 51.468C191.971 51.468 191.643 51.556 191.339 51.732C191.035 51.9 190.787 52.152 190.595 52.488C190.411 52.816 190.319 53.208 190.319 53.664C190.319 54.12 190.411 54.52 190.595 54.864C190.787 55.208 191.035 55.472 191.339 55.656C191.651 55.832 191.979 55.92 192.323 55.92C192.675 55.92 193.003 55.832 193.307 55.656C193.611 55.48 193.855 55.224 194.039 54.888C194.231 54.544 194.327 54.144 194.327 53.688ZM198.068 57.084C197.82 57.084 197.612 57 197.444 56.832C197.276 56.664 197.192 56.456 197.192 56.208C197.192 55.96 197.276 55.752 197.444 55.584C197.612 55.416 197.82 55.332 198.068 55.332C198.308 55.332 198.512 55.416 198.68 55.584C198.848 55.752 198.932 55.96 198.932 56.208C198.932 56.456 198.848 56.664 198.68 56.832C198.512 57 198.308 57.084 198.068 57.084ZM35.236 68.28C35.756 68.28 36.22 68.388 36.628 68.604C37.044 68.82 37.368 69.14 37.6 69.564C37.832 69.988 37.948 70.5 37.948 71.1V75H36.592V71.304C36.592 70.712 36.444 70.26 36.148 69.948C35.852 69.628 35.448 69.468 34.936 69.468C34.424 69.468 34.016 69.628 33.712 69.948C33.416 70.26 33.268 70.712 33.268 71.304V75H31.9V68.388H33.268V69.144C33.492 68.872 33.776 68.66 34.12 68.508C34.472 68.356 34.844 68.28 35.236 68.28ZM42.369 68.28C42.881 68.28 43.333 68.384 43.725 68.592C44.125 68.792 44.437 69.044 44.661 69.348V68.388H46.041V75.108C46.041 75.716 45.913 76.256 45.657 76.728C45.401 77.208 45.029 77.584 44.541 77.856C44.061 78.128 43.485 78.264 42.813 78.264C41.917 78.264 41.173 78.052 40.581 77.628C39.989 77.212 39.653 76.644 39.573 75.924H40.929C41.033 76.268 41.253 76.544 41.589 76.752C41.933 76.968 42.341 77.076 42.813 77.076C43.365 77.076 43.809 76.908 44.145 76.572C44.489 76.236 44.661 75.748 44.661 75.108V74.004C44.429 74.316 44.113 74.58 43.713 74.796C43.321 75.004 42.873 75.108 42.369 75.108C41.793 75.108 41.265 74.964 40.785 74.676C40.313 74.38 39.937 73.972 39.657 73.452C39.385 72.924 39.249 72.328 39.249 71.664C39.249 71 39.385 70.412 39.657 69.9C39.937 69.388 40.313 68.992 40.785 68.712C41.265 68.424 41.793 68.28 42.369 68.28ZM44.661 71.688C44.661 71.232 44.565 70.836 44.373 70.5C44.189 70.164 43.945 69.908 43.641 69.732C43.337 69.556 43.009 69.468 42.657 69.468C42.305 69.468 41.977 69.556 41.673 69.732C41.369 69.9 41.121 70.152 40.929 70.488C40.745 70.816 40.653 71.208 40.653 71.664C40.653 72.12 40.745 72.52 40.929 72.864C41.121 73.208 41.369 73.472 41.673 73.656C41.985 73.832 42.313 73.92 42.657 73.92C43.009 73.92 43.337 73.832 43.641 73.656C43.945 73.48 44.189 73.224 44.373 72.888C44.565 72.544 44.661 72.144 44.661 71.688ZM47.3938 71.664C47.3938 71 47.5298 70.412 47.8018 69.9C48.0818 69.388 48.4578 68.992 48.9298 68.712C49.4098 68.424 49.9378 68.28 50.5138 68.28C51.0338 68.28 51.4858 68.384 51.8698 68.592C52.2618 68.792 52.5738 69.044 52.8058 69.348V68.388H54.1858V75H52.8058V74.016C52.5738 74.328 52.2578 74.588 51.8578 74.796C51.4578 75.004 51.0018 75.108 50.4898 75.108C49.9218 75.108 49.4018 74.964 48.9298 74.676C48.4578 74.38 48.0818 73.972 47.8018 73.452C47.5298 72.924 47.3938 72.328 47.3938 71.664ZM52.8058 71.688C52.8058 71.232 52.7098 70.836 52.5178 70.5C52.3338 70.164 52.0898 69.908 51.7858 69.732C51.4818 69.556 51.1538 69.468 50.8018 69.468C50.4498 69.468 50.1218 69.556 49.8178 69.732C49.5138 69.9 49.2658 70.152 49.0738 70.488C48.8898 70.816 48.7978 71.208 48.7978 71.664C48.7978 72.12 48.8898 72.52 49.0738 72.864C49.2658 73.208 49.5138 73.472 49.8178 73.656C50.1298 73.832 50.4578 73.92 50.8018 73.92C51.1538 73.92 51.4818 73.832 51.7858 73.656C52.0898 73.48 52.3338 73.224 52.5178 72.888C52.7098 72.544 52.8058 72.144 52.8058 71.688ZM61.9466 68.388L57.8906 78.108H56.4746L57.8186 74.892L55.2146 68.388H56.7386L58.5986 73.428L60.5306 68.388H61.9466ZM65.859 75.108C65.235 75.108 64.671 74.968 64.167 74.688C63.663 74.4 63.267 74 62.979 73.488C62.691 72.968 62.547 72.368 62.547 71.688C62.547 71.016 62.695 70.42 62.991 69.9C63.287 69.38 63.691 68.98 64.203 68.7C64.715 68.42 65.287 68.28 65.919 68.28C66.551 68.28 67.123 68.42 67.635 68.7C68.147 68.98 68.551 69.38 68.847 69.9C69.143 70.42 69.291 71.016 69.291 71.688C69.291 72.36 69.139 72.956 68.835 73.476C68.531 73.996 68.115 74.4 67.587 74.688C67.067 74.968 66.491 75.108 65.859 75.108ZM65.859 73.92C66.211 73.92 66.539 73.836 66.843 73.668C67.155 73.5 67.407 73.248 67.599 72.912C67.791 72.576 67.887 72.168 67.887 71.688C67.887 71.208 67.795 70.804 67.611 70.476C67.427 70.14 67.183 69.888 66.879 69.72C66.575 69.552 66.247 69.468 65.895 69.468C65.543 69.468 65.215 69.552 64.911 69.72C64.615 69.888 64.379 70.14 64.203 70.476C64.027 70.804 63.939 71.208 63.939 71.688C63.939 72.4 64.119 72.952 64.479 73.344C64.847 73.728 65.307 73.92 65.859 73.92ZM73.9913 68.28C74.5113 68.28 74.9753 68.388 75.3833 68.604C75.7993 68.82 76.1233 69.14 76.3553 69.564C76.5873 69.988 76.7033 70.5 76.7033 71.1V75H75.3473V71.304C75.3473 70.712 75.1993 70.26 74.9033 69.948C74.6073 69.628 74.2033 69.468 73.6913 69.468C73.1793 69.468 72.7713 69.628 72.4673 69.948C72.1713 70.26 72.0233 70.712 72.0233 71.304V75H70.6553V68.388H72.0233V69.144C72.2473 68.872 72.5313 68.66 72.8753 68.508C73.2273 68.356 73.5993 68.28 73.9913 68.28ZM103.607 69.372C103.839 69.052 104.155 68.792 104.555 68.592C104.963 68.384 105.415 68.28 105.911 68.28C106.495 68.28 107.023 68.42 107.495 68.7C107.967 68.98 108.339 69.38 108.611 69.9C108.883 70.412 109.019 71 109.019 71.664C109.019 72.328 108.883 72.924 108.611 73.452C108.339 73.972 107.963 74.38 107.483 74.676C107.011 74.964 106.487 75.108 105.911 75.108C105.399 75.108 104.943 75.008 104.543 74.808C104.151 74.608 103.839 74.352 103.607 74.04V75H102.239V66.12H103.607V69.372ZM107.627 71.664C107.627 71.208 107.531 70.816 107.339 70.488C107.155 70.152 106.907 69.9 106.595 69.732C106.291 69.556 105.963 69.468 105.611 69.468C105.267 69.468 104.939 69.556 104.627 69.732C104.323 69.908 104.075 70.164 103.883 70.5C103.699 70.836 103.607 71.232 103.607 71.688C103.607 72.144 103.699 72.544 103.883 72.888C104.075 73.224 104.323 73.48 104.627 73.656C104.939 73.832 105.267 73.92 105.611 73.92C105.963 73.92 106.291 73.832 106.595 73.656C106.907 73.472 107.155 73.208 107.339 72.864C107.531 72.52 107.627 72.12 107.627 71.664ZM109.928 71.664C109.928 71 110.064 70.412 110.336 69.9C110.616 69.388 110.992 68.992 111.464 68.712C111.944 68.424 112.476 68.28 113.06 68.28C113.492 68.28 113.916 68.376 114.332 68.568C114.756 68.752 115.092 69 115.34 69.312V66.12H116.72V75H115.34V74.004C115.116 74.324 114.804 74.588 114.404 74.796C114.012 75.004 113.56 75.108 113.048 75.108C112.472 75.108 111.944 74.964 111.464 74.676C110.992 74.38 110.616 73.972 110.336 73.452C110.064 72.924 109.928 72.328 109.928 71.664ZM115.34 71.688C115.34 71.232 115.244 70.836 115.052 70.5C114.868 70.164 114.624 69.908 114.32 69.732C114.016 69.556 113.688 69.468 113.336 69.468C112.984 69.468 112.656 69.556 112.352 69.732C112.048 69.9 111.8 70.152 111.608 70.488C111.424 70.816 111.332 71.208 111.332 71.664C111.332 72.12 111.424 72.52 111.608 72.864C111.8 73.208 112.048 73.472 112.352 73.656C112.664 73.832 112.992 73.92 113.336 73.92C113.688 73.92 114.016 73.832 114.32 73.656C114.624 73.48 114.868 73.224 115.052 72.888C115.244 72.544 115.34 72.144 115.34 71.688ZM121.397 75.108C120.773 75.108 120.209 74.968 119.705 74.688C119.201 74.4 118.805 74 118.517 73.488C118.229 72.968 118.085 72.368 118.085 71.688C118.085 71.016 118.233 70.42 118.529 69.9C118.825 69.38 119.229 68.98 119.741 68.7C120.253 68.42 120.825 68.28 121.457 68.28C122.089 68.28 122.661 68.42 123.173 68.7C123.685 68.98 124.089 69.38 124.385 69.9C124.681 70.42 124.829 71.016 124.829 71.688C124.829 72.36 124.677 72.956 124.373 73.476C124.069 73.996 123.653 74.4 123.125 74.688C122.605 74.968 122.029 75.108 121.397 75.108ZM121.397 73.92C121.749 73.92 122.077 73.836 122.381 73.668C122.693 73.5 122.945 73.248 123.137 72.912C123.329 72.576 123.425 72.168 123.425 71.688C123.425 71.208 123.333 70.804 123.149 70.476C122.965 70.14 122.721 69.888 122.417 69.72C122.113 69.552 121.785 69.468 121.433 69.468C121.081 69.468 120.753 69.552 120.449 69.72C120.153 69.888 119.917 70.14 119.741 70.476C119.565 70.804 119.477 71.208 119.477 71.688C119.477 72.4 119.657 72.952 120.017 73.344C120.385 73.728 120.845 73.92 121.397 73.92ZM131.269 70.08V71.232H126.337V70.08H131.269ZM135.781 73.776L137.653 68.388H139.105L136.585 75H134.953L132.445 68.388H133.909L135.781 73.776ZM146.211 71.532C146.211 71.78 146.195 72.004 146.163 72.204H141.111C141.151 72.732 141.347 73.156 141.699 73.476C142.051 73.796 142.483 73.956 142.995 73.956C143.731 73.956 144.251 73.648 144.555 73.032H146.031C145.831 73.64 145.467 74.14 144.939 74.532C144.419 74.916 143.771 75.108 142.995 75.108C142.363 75.108 141.795 74.968 141.291 74.688C140.795 74.4 140.403 74 140.115 73.488C139.835 72.968 139.695 72.368 139.695 71.688C139.695 71.008 139.831 70.412 140.103 69.9C140.383 69.38 140.771 68.98 141.267 68.7C141.771 68.42 142.347 68.28 142.995 68.28C143.619 68.28 144.175 68.416 144.663 68.688C145.151 68.96 145.531 69.344 145.803 69.84C146.075 70.328 146.211 70.892 146.211 71.532ZM144.783 71.1C144.775 70.596 144.595 70.192 144.243 69.888C143.891 69.584 143.455 69.432 142.935 69.432C142.463 69.432 142.059 69.584 141.723 69.888C141.387 70.184 141.187 70.588 141.123 71.1H144.783ZM148.937 69.348C149.137 69.012 149.401 68.752 149.729 68.568C150.065 68.376 150.461 68.28 150.917 68.28V69.696H150.569C150.033 69.696 149.625 69.832 149.345 70.104C149.073 70.376 148.937 70.848 148.937 71.52V75H147.569V68.388H148.937V69.348ZM152.882 67.512C152.634 67.512 152.426 67.428 152.258 67.26C152.09 67.092 152.006 66.884 152.006 66.636C152.006 66.388 152.09 66.18 152.258 66.012C152.426 65.844 152.634 65.76 152.882 65.76C153.122 65.76 153.326 65.844 153.494 66.012C153.662 66.18 153.746 66.388 153.746 66.636C153.746 66.884 153.662 67.092 153.494 67.26C153.326 67.428 153.122 67.512 152.882 67.512ZM153.554 68.388V75H152.186V68.388H153.554ZM158.134 69.504H156.91V75H155.53V69.504H154.75V68.388H155.53V67.92C155.53 67.16 155.73 66.608 156.13 66.264C156.538 65.912 157.174 65.736 158.038 65.736V66.876C157.622 66.876 157.33 66.956 157.162 67.116C156.994 67.268 156.91 67.536 156.91 67.92V68.388H158.134V69.504ZM165.311 68.388L161.255 78.108H159.839L161.183 74.892L158.579 68.388H160.103L161.963 73.428L163.895 68.388H165.311ZM166.907 75.084C166.659 75.084 166.451 75 166.283 74.832C166.115 74.664 166.031 74.456 166.031 74.208C166.031 73.96 166.115 73.752 166.283 73.584C166.451 73.416 166.659 73.332 166.907 73.332C167.147 73.332 167.351 73.416 167.519 73.584C167.687 73.752 167.771 73.96 167.771 74.208C167.771 74.456 167.687 74.664 167.519 74.832C167.351 75 167.147 75.084 166.907 75.084ZM168.806 71.688C168.806 71.008 168.942 70.412 169.214 69.9C169.494 69.38 169.878 68.98 170.366 68.7C170.854 68.42 171.414 68.28 172.046 68.28C172.846 68.28 173.506 68.472 174.026 68.856C174.554 69.232 174.91 69.772 175.094 70.476H173.618C173.498 70.148 173.306 69.892 173.042 69.708C172.778 69.524 172.446 69.432 172.046 69.432C171.486 69.432 171.038 69.632 170.702 70.032C170.374 70.424 170.21 70.976 170.21 71.688C170.21 72.4 170.374 72.956 170.702 73.356C171.038 73.756 171.486 73.956 172.046 73.956C172.838 73.956 173.362 73.608 173.618 72.912H175.094C174.902 73.584 174.542 74.12 174.014 74.52C173.486 74.912 172.83 75.108 172.046 75.108C171.414 75.108 170.854 74.968 170.366 74.688C169.878 74.4 169.494 74 169.214 73.488C168.942 72.968 168.806 72.368 168.806 71.688ZM179.337 75.108C178.713 75.108 178.149 74.968 177.645 74.688C177.141 74.4 176.745 74 176.457 73.488C176.169 72.968 176.025 72.368 176.025 71.688C176.025 71.016 176.173 70.42 176.469 69.9C176.765 69.38 177.169 68.98 177.681 68.7C178.193 68.42 178.765 68.28 179.397 68.28C180.029 68.28 180.601 68.42 181.113 68.7C181.625 68.98 182.029 69.38 182.325 69.9C182.621 70.42 182.769 71.016 182.769 71.688C182.769 72.36 182.617 72.956 182.313 73.476C182.009 73.996 181.593 74.4 181.065 74.688C180.545 74.968 179.969 75.108 179.337 75.108ZM179.337 73.92C179.689 73.92 180.017 73.836 180.321 73.668C180.633 73.5 180.885 73.248 181.077 72.912C181.269 72.576 181.365 72.168 181.365 71.688C181.365 71.208 181.273 70.804 181.089 70.476C180.905 70.14 180.661 69.888 180.357 69.72C180.053 69.552 179.725 69.468 179.373 69.468C179.021 69.468 178.693 69.552 178.389 69.72C178.093 69.888 177.857 70.14 177.681 70.476C177.505 70.804 177.417 71.208 177.417 71.688C177.417 72.4 177.597 72.952 177.957 73.344C178.325 73.728 178.785 73.92 179.337 73.92ZM192.137 68.28C192.657 68.28 193.121 68.388 193.529 68.604C193.945 68.82 194.269 69.14 194.501 69.564C194.741 69.988 194.861 70.5 194.861 71.1V75H193.505V71.304C193.505 70.712 193.357 70.26 193.061 69.948C192.765 69.628 192.361 69.468 191.849 69.468C191.337 69.468 190.929 69.628 190.625 69.948C190.329 70.26 190.181 70.712 190.181 71.304V75H188.825V71.304C188.825 70.712 188.677 70.26 188.381 69.948C188.085 69.628 187.681 69.468 187.169 69.468C186.657 69.468 186.249 69.628 185.945 69.948C185.649 70.26 185.501 70.712 185.501 71.304V75H184.133V68.388H185.501V69.144C185.725 68.872 186.009 68.66 186.353 68.508C186.697 68.356 187.065 68.28 187.457 68.28C187.985 68.28 188.457 68.392 188.873 68.616C189.289 68.84 189.609 69.164 189.833 69.588C190.033 69.188 190.345 68.872 190.769 68.64C191.193 68.4 191.649 68.28 192.137 68.28Z" fill="#520000"/>
<rect x="15" y="100" width="79" height="34" rx="15" fill="#FFD3D3"/>
<path d="M33.808 112.66V113.776H30.268V116.236H33.028V117.352H30.268V121H28.9V112.66H33.808ZM34.6318 117.664C34.6318 117 34.7678 116.412 35.0398 115.9C35.3198 115.388 35.6958 114.992 36.1678 114.712C36.6478 114.424 37.1758 114.28 37.7518 114.28C38.2718 114.28 38.7238 114.384 39.1078 114.592C39.4998 114.792 39.8118 115.044 40.0438 115.348V114.388H41.4238V121H40.0438V120.016C39.8118 120.328 39.4958 120.588 39.0958 120.796C38.6958 121.004 38.2398 121.108 37.7278 121.108C37.1598 121.108 36.6398 120.964 36.1678 120.676C35.6958 120.38 35.3198 119.972 35.0398 119.452C34.7678 118.924 34.6318 118.328 34.6318 117.664ZM40.0438 117.688C40.0438 117.232 39.9478 116.836 39.7558 116.5C39.5718 116.164 39.3278 115.908 39.0238 115.732C38.7198 115.556 38.3918 115.468 38.0398 115.468C37.6878 115.468 37.3598 115.556 37.0558 115.732C36.7518 115.9 36.5038 116.152 36.3118 116.488C36.1278 116.816 36.0358 117.208 36.0358 117.664C36.0358 118.12 36.1278 118.52 36.3118 118.864C36.5038 119.208 36.7518 119.472 37.0558 119.656C37.3678 119.832 37.6958 119.92 38.0398 119.92C38.3918 119.92 38.7198 119.832 39.0238 119.656C39.3278 119.48 39.5718 119.224 39.7558 118.888C39.9478 118.544 40.0438 118.144 40.0438 117.688ZM45.8486 117.7L48.8966 121H47.0486L44.6006 118.156V121H43.2326V112.12H44.6006V117.28L47.0006 114.388H48.8966L45.8486 117.7ZM55.9491 117.532C55.9491 117.78 55.9331 118.004 55.9011 118.204H50.8491C50.8891 118.732 51.0851 119.156 51.4371 119.476C51.7891 119.796 52.2211 119.956 52.7331 119.956C53.4691 119.956 53.9891 119.648 54.2931 119.032H55.7691C55.5691 119.64 55.2051 120.14 54.6771 120.532C54.1571 120.916 53.5091 121.108 52.7331 121.108C52.1011 121.108 51.5331 120.968 51.0291 120.688C50.5331 120.4 50.1411 120 49.8531 119.488C49.5731 118.968 49.4331 118.368 49.4331 117.688C49.4331 117.008 49.5691 116.412 49.8411 115.9C50.1211 115.38 50.5091 114.98 51.0051 114.7C51.5091 114.42 52.0851 114.28 52.7331 114.28C53.3571 114.28 53.9131 114.416 54.4011 114.688C54.8891 114.96 55.2691 115.344 55.5411 115.84C55.8131 116.328 55.9491 116.892 55.9491 117.532ZM54.5211 117.1C54.5131 116.596 54.3331 116.192 53.9811 115.888C53.6291 115.584 53.1931 115.432 52.6731 115.432C52.2011 115.432 51.7971 115.584 51.4611 115.888C51.1251 116.184 50.9251 116.588 50.8611 117.1H54.5211ZM62.3834 116.08V117.232H57.4514V116.08H62.3834ZM65.6949 112.66V117.976C65.6949 118.608 65.8589 119.084 66.1869 119.404C66.5229 119.724 66.9869 119.884 67.5789 119.884C68.1789 119.884 68.6429 119.724 68.9709 119.404C69.3069 119.084 69.4749 118.608 69.4749 117.976V112.66H70.8429V117.952C70.8429 118.632 70.6949 119.208 70.3989 119.68C70.1029 120.152 69.7069 120.504 69.2109 120.736C68.7149 120.968 68.1669 121.084 67.5669 121.084C66.9669 121.084 66.4189 120.968 65.9229 120.736C65.4349 120.504 65.0469 120.152 64.7589 119.68C64.4709 119.208 64.3269 118.632 64.3269 117.952V112.66H65.6949ZM76.9681 121L75.0481 117.664H74.0041V121H72.6361V112.66H75.5161C76.1561 112.66 76.6961 112.772 77.1361 112.996C77.5841 113.22 77.9161 113.52 78.1321 113.896C78.3561 114.272 78.4681 114.692 78.4681 115.156C78.4681 115.7 78.3081 116.196 77.9881 116.644C77.6761 117.084 77.1921 117.384 76.5361 117.544L78.6001 121H76.9681ZM74.0041 116.572H75.5161C76.0281 116.572 76.4121 116.444 76.6681 116.188C76.9321 115.932 77.0641 115.588 77.0641 115.156C77.0641 114.724 76.9361 114.388 76.6801 114.148C76.4241 113.9 76.0361 113.776 75.5161 113.776H74.0041V116.572ZM81.5981 119.896H84.4181V121H80.2301V112.66H81.5981V119.896Z" fill="#520000"/>
<rect x="107" y="100" width="79" height="34" rx="15" fill="#FFD3D3"/>
<path d="M123.256 112.66V117.976C123.256 118.608 123.42 119.084 123.748 119.404C124.084 119.724 124.548 119.884 125.14 119.884C125.74 119.884 126.204 119.724 126.532 119.404C126.868 119.084 127.036 118.608 127.036 117.976V112.66H128.404V117.952C128.404 118.632 128.256 119.208 127.96 119.68C127.664 120.152 127.268 120.504 126.772 120.736C126.276 120.968 125.728 121.084 125.128 121.084C124.528 121.084 123.98 120.968 123.484 120.736C122.996 120.504 122.608 120.152 122.32 119.68C122.032 119.208 121.888 118.632 121.888 117.952V112.66H123.256ZM131.565 115.348C131.765 115.012 132.029 114.752 132.357 114.568C132.693 114.376 133.089 114.28 133.545 114.28V115.696H133.197C132.661 115.696 132.253 115.832 131.973 116.104C131.701 116.376 131.565 116.848 131.565 117.52V121H130.197V114.388H131.565V115.348ZM137.479 114.28C137.991 114.28 138.443 114.384 138.835 114.592C139.235 114.792 139.547 115.044 139.771 115.348V114.388H141.151V121.108C141.151 121.716 141.023 122.256 140.767 122.728C140.511 123.208 140.139 123.584 139.651 123.856C139.171 124.128 138.595 124.264 137.923 124.264C137.027 124.264 136.283 124.052 135.691 123.628C135.099 123.212 134.763 122.644 134.683 121.924H136.039C136.143 122.268 136.363 122.544 136.699 122.752C137.043 122.968 137.451 123.076 137.923 123.076C138.475 123.076 138.919 122.908 139.255 122.572C139.599 122.236 139.771 121.748 139.771 121.108V120.004C139.539 120.316 139.223 120.58 138.823 120.796C138.431 121.004 137.983 121.108 137.479 121.108C136.903 121.108 136.375 120.964 135.895 120.676C135.423 120.38 135.047 119.972 134.767 119.452C134.495 118.924 134.359 118.328 134.359 117.664C134.359 117 134.495 116.412 134.767 115.9C135.047 115.388 135.423 114.992 135.895 114.712C136.375 114.424 136.903 114.28 137.479 114.28ZM139.771 117.688C139.771 117.232 139.675 116.836 139.483 116.5C139.299 116.164 139.055 115.908 138.751 115.732C138.447 115.556 138.119 115.468 137.767 115.468C137.415 115.468 137.087 115.556 136.783 115.732C136.479 115.9 136.231 116.152 136.039 116.488C135.855 116.816 135.763 117.208 135.763 117.664C135.763 118.12 135.855 118.52 136.039 118.864C136.231 119.208 136.479 119.472 136.783 119.656C137.095 119.832 137.423 119.92 137.767 119.92C138.119 119.92 138.447 119.832 138.751 119.656C139.055 119.48 139.299 119.224 139.483 118.888C139.675 118.544 139.771 118.144 139.771 117.688ZM149.019 117.532C149.019 117.78 149.003 118.004 148.971 118.204H143.919C143.959 118.732 144.155 119.156 144.507 119.476C144.859 119.796 145.291 119.956 145.803 119.956C146.539 119.956 147.059 119.648 147.363 119.032H148.839C148.639 119.64 148.275 120.14 147.747 120.532C147.227 120.916 146.579 121.108 145.803 121.108C145.171 121.108 144.603 120.968 144.099 120.688C143.603 120.4 143.211 120 142.923 119.488C142.643 118.968 142.503 118.368 142.503 117.688C142.503 117.008 142.639 116.412 142.911 115.9C143.191 115.38 143.579 114.98 144.075 114.7C144.579 114.42 145.155 114.28 145.803 114.28C146.427 114.28 146.983 114.416 147.471 114.688C147.959 114.96 148.339 115.344 148.611 115.84C148.883 116.328 149.019 116.892 149.019 117.532ZM147.591 117.1C147.583 116.596 147.403 116.192 147.051 115.888C146.699 115.584 146.263 115.432 145.743 115.432C145.271 115.432 144.867 115.584 144.531 115.888C144.195 116.184 143.995 116.588 143.931 117.1H147.591ZM153.714 114.28C154.234 114.28 154.698 114.388 155.106 114.604C155.522 114.82 155.846 115.14 156.078 115.564C156.31 115.988 156.426 116.5 156.426 117.1V121H155.07V117.304C155.07 116.712 154.922 116.26 154.626 115.948C154.33 115.628 153.926 115.468 153.414 115.468C152.902 115.468 152.494 115.628 152.19 115.948C151.894 116.26 151.746 116.712 151.746 117.304V121H150.378V114.388H151.746V115.144C151.97 114.872 152.254 114.66 152.598 114.508C152.95 114.356 153.322 114.28 153.714 114.28ZM157.727 117.688C157.727 117.008 157.863 116.412 158.135 115.9C158.415 115.38 158.799 114.98 159.287 114.7C159.775 114.42 160.335 114.28 160.967 114.28C161.767 114.28 162.427 114.472 162.947 114.856C163.475 115.232 163.831 115.772 164.015 116.476H162.539C162.419 116.148 162.227 115.892 161.963 115.708C161.699 115.524 161.367 115.432 160.967 115.432C160.407 115.432 159.959 115.632 159.623 116.032C159.295 116.424 159.131 116.976 159.131 117.688C159.131 118.4 159.295 118.956 159.623 119.356C159.959 119.756 160.407 119.956 160.967 119.956C161.759 119.956 162.283 119.608 162.539 118.912H164.015C163.823 119.584 163.463 120.12 162.935 120.52C162.407 120.912 161.751 121.108 160.967 121.108C160.335 121.108 159.775 120.968 159.287 120.688C158.799 120.4 158.415 120 158.135 119.488C157.863 118.968 157.727 118.368 157.727 117.688ZM171.342 114.388L167.286 124.108H165.87L167.214 120.892L164.61 114.388H166.134L167.994 119.428L169.926 114.388H171.342Z" fill="#520000"/>
<rect x="199" y="100" width="83" height="34" rx="15" fill="#FFD3D3"/>
<path d="M206.268 119.896H209.088V121H204.9V112.66H206.268V119.896ZM210.94 113.512C210.692 113.512 210.484 113.428 210.316 113.26C210.148 113.092 210.064 112.884 210.064 112.636C210.064 112.388 210.148 112.18 210.316 112.012C210.484 111.844 210.692 111.76 210.94 111.76C211.18 111.76 211.384 111.844 211.552 112.012C211.72 112.18 211.804 112.388 211.804 112.636C211.804 112.884 211.72 113.092 211.552 113.26C211.384 113.428 211.18 113.512 210.94 113.512ZM211.612 114.388V121H210.244V114.388H211.612ZM216.036 117.7L219.084 121H217.236L214.788 118.156V121H213.42V112.12H214.788V117.28L217.188 114.388H219.084L216.036 117.7ZM226.137 117.532C226.137 117.78 226.121 118.004 226.089 118.204H221.037C221.077 118.732 221.273 119.156 221.625 119.476C221.977 119.796 222.409 119.956 222.921 119.956C223.657 119.956 224.177 119.648 224.481 119.032H225.957C225.757 119.64 225.393 120.14 224.865 120.532C224.345 120.916 223.697 121.108 222.921 121.108C222.289 121.108 221.721 120.968 221.217 120.688C220.721 120.4 220.329 120 220.041 119.488C219.761 118.968 219.621 118.368 219.621 117.688C219.621 117.008 219.757 116.412 220.029 115.9C220.309 115.38 220.697 114.98 221.193 114.7C221.697 114.42 222.273 114.28 222.921 114.28C223.545 114.28 224.101 114.416 224.589 114.688C225.077 114.96 225.457 115.344 225.729 115.84C226.001 116.328 226.137 116.892 226.137 117.532ZM224.709 117.1C224.701 116.596 224.521 116.192 224.169 115.888C223.817 115.584 223.381 115.432 222.861 115.432C222.389 115.432 221.985 115.584 221.649 115.888C221.313 116.184 221.113 116.588 221.049 117.1H224.709ZM230.168 117.664C230.168 117 230.304 116.412 230.576 115.9C230.856 115.388 231.232 114.992 231.704 114.712C232.184 114.424 232.712 114.28 233.288 114.28C233.808 114.28 234.26 114.384 234.644 114.592C235.036 114.792 235.348 115.044 235.58 115.348V114.388H236.96V121H235.58V120.016C235.348 120.328 235.032 120.588 234.632 120.796C234.232 121.004 233.776 121.108 233.264 121.108C232.696 121.108 232.176 120.964 231.704 120.676C231.232 120.38 230.856 119.972 230.576 119.452C230.304 118.924 230.168 118.328 230.168 117.664ZM235.58 117.688C235.58 117.232 235.484 116.836 235.292 116.5C235.108 116.164 234.864 115.908 234.56 115.732C234.256 115.556 233.928 115.468 233.576 115.468C233.224 115.468 232.896 115.556 232.592 115.732C232.288 115.9 232.04 116.152 231.848 116.488C231.664 116.816 231.572 117.208 231.572 117.664C231.572 118.12 231.664 118.52 231.848 118.864C232.04 119.208 232.288 119.472 232.592 119.656C232.904 119.832 233.232 119.92 233.576 119.92C233.928 119.92 234.256 119.832 234.56 119.656C234.864 119.48 235.108 119.224 235.292 118.888C235.484 118.544 235.58 118.144 235.58 117.688ZM244.646 121.084C244.086 121.084 243.582 120.988 243.134 120.796C242.686 120.596 242.334 120.316 242.078 119.956C241.822 119.596 241.694 119.176 241.694 118.696H243.158C243.19 119.056 243.33 119.352 243.578 119.584C243.834 119.816 244.19 119.932 244.646 119.932C245.118 119.932 245.486 119.82 245.75 119.596C246.014 119.364 246.146 119.068 246.146 118.708C246.146 118.428 246.062 118.2 245.894 118.024C245.734 117.848 245.53 117.712 245.282 117.616C245.042 117.52 244.706 117.416 244.274 117.304C243.73 117.16 243.286 117.016 242.942 116.872C242.606 116.72 242.318 116.488 242.078 116.176C241.838 115.864 241.718 115.448 241.718 114.928C241.718 114.448 241.838 114.028 242.078 113.668C242.318 113.308 242.654 113.032 243.086 112.84C243.518 112.648 244.018 112.552 244.586 112.552C245.394 112.552 246.054 112.756 246.566 113.164C247.086 113.564 247.374 114.116 247.43 114.82H245.918C245.894 114.516 245.75 114.256 245.486 114.04C245.222 113.824 244.874 113.716 244.442 113.716C244.05 113.716 243.73 113.816 243.482 114.016C243.234 114.216 243.11 114.504 243.11 114.88C243.11 115.136 243.186 115.348 243.338 115.516C243.498 115.676 243.698 115.804 243.938 115.9C244.178 115.996 244.506 116.1 244.922 116.212C245.474 116.364 245.922 116.516 246.266 116.668C246.618 116.82 246.914 117.056 247.154 117.376C247.402 117.688 247.526 118.108 247.526 118.636C247.526 119.06 247.41 119.46 247.178 119.836C246.954 120.212 246.622 120.516 246.182 120.748C245.75 120.972 245.238 121.084 244.646 121.084ZM248.696 117.688C248.696 117.008 248.832 116.412 249.104 115.9C249.384 115.38 249.768 114.98 250.256 114.7C250.744 114.42 251.304 114.28 251.936 114.28C252.736 114.28 253.396 114.472 253.916 114.856C254.444 115.232 254.8 115.772 254.984 116.476H253.508C253.388 116.148 253.196 115.892 252.932 115.708C252.668 115.524 252.336 115.432 251.936 115.432C251.376 115.432 250.928 115.632 250.592 116.032C250.264 116.424 250.1 116.976 250.1 117.688C250.1 118.4 250.264 118.956 250.592 119.356C250.928 119.756 251.376 119.956 251.936 119.956C252.728 119.956 253.252 119.608 253.508 118.912H254.984C254.792 119.584 254.432 120.12 253.904 120.52C253.376 120.912 252.72 121.108 251.936 121.108C251.304 121.108 250.744 120.968 250.256 120.688C249.768 120.4 249.384 120 249.104 119.488C248.832 118.968 248.696 118.368 248.696 117.688ZM255.904 117.664C255.904 117 256.04 116.412 256.312 115.9C256.592 115.388 256.968 114.992 257.44 114.712C257.92 114.424 258.448 114.28 259.024 114.28C259.544 114.28 259.996 114.384 260.38 114.592C260.772 114.792 261.084 115.044 261.316 115.348V114.388H262.696V121H261.316V120.016C261.084 120.328 260.768 120.588 260.368 120.796C259.968 121.004 259.512 121.108 259 121.108C258.432 121.108 257.912 120.964 257.44 120.676C256.968 120.38 256.592 119.972 256.312 119.452C256.04 118.924 255.904 118.328 255.904 117.664ZM261.316 117.688C261.316 117.232 261.22 116.836 261.028 116.5C260.844 116.164 260.6 115.908 260.296 115.732C259.992 115.556 259.664 115.468 259.312 115.468C258.96 115.468 258.632 115.556 258.328 115.732C258.024 115.9 257.776 116.152 257.584 116.488C257.4 116.816 257.308 117.208 257.308 117.664C257.308 118.12 257.4 118.52 257.584 118.864C257.776 119.208 258.024 119.472 258.328 119.656C258.64 119.832 258.968 119.92 259.312 119.92C259.664 119.92 259.992 119.832 260.296 119.656C260.6 119.48 260.844 119.224 261.028 118.888C261.22 118.544 261.316 118.144 261.316 117.688ZM272.508 114.28C273.028 114.28 273.492 114.388 273.9 114.604C274.316 114.82 274.64 115.14 274.872 115.564C275.112 115.988 275.232 116.5 275.232 117.1V121H273.876V117.304C273.876 116.712 273.728 116.26 273.432 115.948C273.136 115.628 272.732 115.468 272.22 115.468C271.708 115.468 271.3 115.628 270.996 115.948C270.7 116.26 270.552 116.712 270.552 117.304V121H269.196V117.304C269.196 116.712 269.048 116.26 268.752 115.948C268.456 115.628 268.052 115.468 267.54 115.468C267.028 115.468 266.62 115.628 266.316 115.948C266.02 116.26 265.872 116.712 265.872 117.304V121H264.504V114.388H265.872V115.144C266.096 114.872 266.38 114.66 266.724 114.508C267.068 114.356 267.436 114.28 267.828 114.28C268.356 114.28 268.828 114.392 269.244 114.616C269.66 114.84 269.98 115.164 270.204 115.588C270.404 115.188 270.716 114.872 271.14 114.64C271.564 114.4 272.02 114.28 272.508 114.28Z" fill="#520000"/>
</svg>
