<svg width="294" height="68" viewBox="0 0 294 68" fill="none" xmlns="http://www.w3.org/2000/svg">
<rect width="294" height="68" rx="10" fill="#FEF9E2"/>
<path d="M30.188 38.816H34.092V40H28.732V28.848H30.188V38.816ZM44.1023 32.08C43.7929 31.4293 43.3449 30.928 42.7583 30.576C42.1716 30.2133 41.4889 30.032 40.7102 30.032C39.9316 30.032 39.2276 30.2133 38.5982 30.576C37.9796 30.928 37.4889 31.44 37.1263 32.112C36.7742 32.7733 36.5982 33.5413 36.5982 34.416C36.5982 35.2907 36.7742 36.0587 37.1263 36.72C37.4889 37.3813 37.9796 37.8933 38.5982 38.256C39.2276 38.608 39.9316 38.784 40.7102 38.784C41.7983 38.784 42.6943 38.4587 43.3983 37.808C44.1023 37.1573 44.5129 36.2773 44.6302 35.168H40.1823V33.984H46.1823V35.104C46.0969 36.0213 45.8089 36.864 45.3183 37.632C44.8276 38.3893 44.1823 38.992 43.3822 39.44C42.5822 39.8773 41.6916 40.096 40.7102 40.096C39.6756 40.096 38.7316 39.856 37.8782 39.376C37.0249 38.8853 36.3476 38.208 35.8462 37.344C35.3556 36.48 35.1102 35.504 35.1102 34.416C35.1102 33.328 35.3556 32.352 35.8462 31.488C36.3476 30.6133 37.0249 29.936 37.8782 29.456C38.7316 28.9653 39.6756 28.72 40.7102 28.72C41.8942 28.72 42.9396 29.0133 43.8463 29.6C44.7636 30.1867 45.4303 31.0133 45.8463 32.08H44.1023Z" fill="black"/>
<circle cx="37.5" cy="33.5" r="22.5" fill="#B6B3F2" fill-opacity="0.58"/>
<path d="M74.268 23.396H77.088V24.5H72.9V16.16H74.268V23.396ZM81.112 24.608C80.488 24.608 79.924 24.468 79.42 24.188C78.916 23.9 78.52 23.5 78.232 22.988C77.944 22.468 77.8 21.868 77.8 21.188C77.8 20.516 77.948 19.92 78.244 19.4C78.54 18.88 78.944 18.48 79.456 18.2C79.968 17.92 80.54 17.78 81.172 17.78C81.804 17.78 82.376 17.92 82.888 18.2C83.4 18.48 83.804 18.88 84.1 19.4C84.396 19.92 84.544 20.516 84.544 21.188C84.544 21.86 84.392 22.456 84.088 22.976C83.784 23.496 83.368 23.9 82.84 24.188C82.32 24.468 81.744 24.608 81.112 24.608ZM81.112 23.42C81.464 23.42 81.792 23.336 82.096 23.168C82.408 23 82.66 22.748 82.852 22.412C83.044 22.076 83.14 21.668 83.14 21.188C83.14 20.708 83.048 20.304 82.864 19.976C82.68 19.64 82.436 19.388 82.132 19.22C81.828 19.052 81.5 18.968 81.148 18.968C80.796 18.968 80.468 19.052 80.164 19.22C79.868 19.388 79.632 19.64 79.456 19.976C79.28 20.304 79.192 20.708 79.192 21.188C79.192 21.9 79.372 22.452 79.732 22.844C80.1 23.228 80.56 23.42 81.112 23.42ZM87.2764 15.62V24.5H85.9084V15.62H87.2764ZM88.6284 21.164C88.6284 20.5 88.7644 19.912 89.0364 19.4C89.3164 18.888 89.6924 18.492 90.1644 18.212C90.6444 17.924 91.1724 17.78 91.7484 17.78C92.2684 17.78 92.7204 17.884 93.1044 18.092C93.4964 18.292 93.8084 18.544 94.0404 18.848V17.888H95.4204V24.5H94.0404V23.516C93.8084 23.828 93.4924 24.088 93.0924 24.296C92.6924 24.504 92.2364 24.608 91.7244 24.608C91.1564 24.608 90.6364 24.464 90.1644 24.176C89.6924 23.88 89.3164 23.472 89.0364 22.952C88.7644 22.424 88.6284 21.828 88.6284 21.164ZM94.0404 21.188C94.0404 20.732 93.9444 20.336 93.7524 20C93.5684 19.664 93.3244 19.408 93.0204 19.232C92.7164 19.056 92.3884 18.968 92.0364 18.968C91.6844 18.968 91.3564 19.056 91.0524 19.232C90.7484 19.4 90.5004 19.652 90.3084 19.988C90.1244 20.316 90.0324 20.708 90.0324 21.164C90.0324 21.62 90.1244 22.02 90.3084 22.364C90.5004 22.708 90.7484 22.972 91.0524 23.156C91.3644 23.332 91.6924 23.42 92.0364 23.42C92.3884 23.42 92.7164 23.332 93.0204 23.156C93.3244 22.98 93.5684 22.724 93.7524 22.388C93.9444 22.044 94.0404 21.644 94.0404 21.188ZM106.394 18.56C106.178 18.144 105.878 17.832 105.494 17.624C105.11 17.408 104.666 17.3 104.162 17.3C103.61 17.3 103.118 17.424 102.686 17.672C102.254 17.92 101.914 18.272 101.666 18.728C101.426 19.184 101.306 19.712 101.306 20.312C101.306 20.912 101.426 21.444 101.666 21.908C101.914 22.364 102.254 22.716 102.686 22.964C103.118 23.212 103.61 23.336 104.162 23.336C104.906 23.336 105.51 23.128 105.974 22.712C106.438 22.296 106.722 21.732 106.826 21.02H103.694V19.928H108.29V20.996C108.202 21.644 107.97 22.24 107.594 22.784C107.226 23.328 106.742 23.764 106.142 24.092C105.55 24.412 104.89 24.572 104.162 24.572C103.378 24.572 102.662 24.392 102.014 24.032C101.366 23.664 100.85 23.156 100.466 22.508C100.09 21.86 99.9024 21.128 99.9024 20.312C99.9024 19.496 100.09 18.764 100.466 18.116C100.85 17.468 101.366 16.964 102.014 16.604C102.67 16.236 103.386 16.052 104.162 16.052C105.05 16.052 105.838 16.272 106.526 16.712C107.222 17.144 107.726 17.76 108.038 18.56H106.394ZM110.348 17.012C110.1 17.012 109.892 16.928 109.724 16.76C109.556 16.592 109.472 16.384 109.472 16.136C109.472 15.888 109.556 15.68 109.724 15.512C109.892 15.344 110.1 15.26 110.348 15.26C110.588 15.26 110.792 15.344 110.96 15.512C111.128 15.68 111.212 15.888 111.212 16.136C111.212 16.384 111.128 16.592 110.96 16.76C110.792 16.928 110.588 17.012 110.348 17.012ZM111.02 17.888V24.5H109.652V17.888H111.02ZM118.78 17.888L114.724 27.608H113.308L114.652 24.392L112.048 17.888H113.572L115.432 22.928L117.364 17.888H118.78ZM119.368 21.164C119.368 20.5 119.504 19.912 119.776 19.4C120.056 18.888 120.432 18.492 120.904 18.212C121.384 17.924 121.912 17.78 122.488 17.78C123.008 17.78 123.46 17.884 123.844 18.092C124.236 18.292 124.548 18.544 124.78 18.848V17.888H126.16V24.5H124.78V23.516C124.548 23.828 124.232 24.088 123.832 24.296C123.432 24.504 122.976 24.608 122.464 24.608C121.896 24.608 121.376 24.464 120.904 24.176C120.432 23.88 120.056 23.472 119.776 22.952C119.504 22.424 119.368 21.828 119.368 21.164ZM124.78 21.188C124.78 20.732 124.684 20.336 124.492 20C124.308 19.664 124.064 19.408 123.76 19.232C123.456 19.056 123.128 18.968 122.776 18.968C122.424 18.968 122.096 19.056 121.792 19.232C121.488 19.4 121.24 19.652 121.048 19.988C120.864 20.316 120.772 20.708 120.772 21.164C120.772 21.62 120.864 22.02 121.048 22.364C121.24 22.708 121.488 22.972 121.792 23.156C122.104 23.332 122.432 23.42 122.776 23.42C123.128 23.42 123.456 23.332 123.76 23.156C124.064 22.98 124.308 22.724 124.492 22.388C124.684 22.044 124.78 21.644 124.78 21.188Z" fill="black"/>
<path d="M74.268 30.264V32.712H77.148V33.828H74.268V36.384H77.508V37.5H72.9V29.148H77.508V30.264H74.268ZM80.573 28.62V37.5H79.205V28.62H80.573ZM81.925 34.164C81.925 33.5 82.061 32.912 82.333 32.4C82.613 31.888 82.989 31.492 83.461 31.212C83.941 30.924 84.473 30.78 85.057 30.78C85.489 30.78 85.913 30.876 86.329 31.068C86.753 31.252 87.089 31.5 87.337 31.812V28.62H88.717V37.5H87.337V36.504C87.113 36.824 86.801 37.088 86.401 37.296C86.009 37.504 85.557 37.608 85.045 37.608C84.469 37.608 83.941 37.464 83.461 37.176C82.989 36.88 82.613 36.472 82.333 35.952C82.061 35.424 81.925 34.828 81.925 34.164ZM87.337 34.188C87.337 33.732 87.241 33.336 87.049 33C86.865 32.664 86.621 32.408 86.317 32.232C86.013 32.056 85.685 31.968 85.333 31.968C84.981 31.968 84.653 32.056 84.349 32.232C84.045 32.4 83.797 32.652 83.605 32.988C83.421 33.316 83.329 33.708 83.329 34.164C83.329 34.62 83.421 35.02 83.605 35.364C83.797 35.708 84.045 35.972 84.349 36.156C84.661 36.332 84.989 36.42 85.333 36.42C85.685 36.42 86.013 36.332 86.317 36.156C86.621 35.98 86.865 35.724 87.049 35.388C87.241 35.044 87.337 34.644 87.337 34.188ZM96.5858 34.032C96.5858 34.28 96.5698 34.504 96.5378 34.704H91.4858C91.5258 35.232 91.7218 35.656 92.0738 35.976C92.4258 36.296 92.8578 36.456 93.3698 36.456C94.1058 36.456 94.6258 36.148 94.9298 35.532H96.4058C96.2058 36.14 95.8418 36.64 95.3138 37.032C94.7938 37.416 94.1458 37.608 93.3698 37.608C92.7378 37.608 92.1698 37.468 91.6658 37.188C91.1698 36.9 90.7778 36.5 90.4898 35.988C90.2098 35.468 90.0698 34.868 90.0698 34.188C90.0698 33.508 90.2058 32.912 90.4778 32.4C90.7578 31.88 91.1458 31.48 91.6418 31.2C92.1458 30.92 92.7218 30.78 93.3698 30.78C93.9938 30.78 94.5498 30.916 95.0378 31.188C95.5258 31.46 95.9058 31.844 96.1778 32.34C96.4498 32.828 96.5858 33.392 96.5858 34.032ZM95.1578 33.6C95.1498 33.096 94.9698 32.692 94.6178 32.388C94.2658 32.084 93.8298 31.932 93.3098 31.932C92.8378 31.932 92.4338 32.084 92.0978 32.388C91.7618 32.684 91.5618 33.088 91.4978 33.6H95.1578ZM99.3121 31.848C99.5121 31.512 99.7761 31.252 100.104 31.068C100.44 30.876 100.836 30.78 101.292 30.78V32.196H100.944C100.408 32.196 100 32.332 99.7201 32.604C99.4481 32.876 99.3121 33.348 99.3121 34.02V37.5H97.9441V30.888H99.3121V31.848ZM110.767 32.58V33.732H105.835V32.58H110.767Z" fill="#878787"/>
<path d="M75.564 43.78C76.076 43.78 76.528 43.884 76.92 44.092C77.32 44.292 77.632 44.544 77.856 44.848V43.888H79.236V50.608C79.236 51.216 79.108 51.756 78.852 52.228C78.596 52.708 78.224 53.084 77.736 53.356C77.256 53.628 76.68 53.764 76.008 53.764C75.112 53.764 74.368 53.552 73.776 53.128C73.184 52.712 72.848 52.144 72.768 51.424H74.124C74.228 51.768 74.448 52.044 74.784 52.252C75.128 52.468 75.536 52.576 76.008 52.576C76.56 52.576 77.004 52.408 77.34 52.072C77.684 51.736 77.856 51.248 77.856 50.608V49.504C77.624 49.816 77.308 50.08 76.908 50.296C76.516 50.504 76.068 50.608 75.564 50.608C74.988 50.608 74.46 50.464 73.98 50.176C73.508 49.88 73.132 49.472 72.852 48.952C72.58 48.424 72.444 47.828 72.444 47.164C72.444 46.5 72.58 45.912 72.852 45.4C73.132 44.888 73.508 44.492 73.98 44.212C74.46 43.924 74.988 43.78 75.564 43.78ZM77.856 47.188C77.856 46.732 77.76 46.336 77.568 46C77.384 45.664 77.14 45.408 76.836 45.232C76.532 45.056 76.204 44.968 75.852 44.968C75.5 44.968 75.172 45.056 74.868 45.232C74.564 45.4 74.316 45.652 74.124 45.988C73.94 46.316 73.848 46.708 73.848 47.164C73.848 47.62 73.94 48.02 74.124 48.364C74.316 48.708 74.564 48.972 74.868 49.156C75.18 49.332 75.508 49.42 75.852 49.42C76.204 49.42 76.532 49.332 76.836 49.156C77.14 48.98 77.384 48.724 77.568 48.388C77.76 48.044 77.856 47.644 77.856 47.188ZM87.0328 43.888V50.5H85.6648V49.72C85.4488 49.992 85.1648 50.208 84.8128 50.368C84.4688 50.52 84.1008 50.596 83.7088 50.596C83.1888 50.596 82.7208 50.488 82.3048 50.272C81.8968 50.056 81.5728 49.736 81.3328 49.312C81.1008 48.888 80.9848 48.376 80.9848 47.776V43.888H82.3408V47.572C82.3408 48.164 82.4888 48.62 82.7848 48.94C83.0808 49.252 83.4848 49.408 83.9968 49.408C84.5088 49.408 84.9128 49.252 85.2088 48.94C85.5128 48.62 85.6648 48.164 85.6648 47.572V43.888H87.0328ZM96.8538 43.78C97.3738 43.78 97.8378 43.888 98.2458 44.104C98.6618 44.32 98.9858 44.64 99.2178 45.064C99.4578 45.488 99.5778 46 99.5778 46.6V50.5H98.2218V46.804C98.2218 46.212 98.0738 45.76 97.7778 45.448C97.4818 45.128 97.0778 44.968 96.5658 44.968C96.0538 44.968 95.6458 45.128 95.3418 45.448C95.0458 45.76 94.8978 46.212 94.8978 46.804V50.5H93.5418V46.804C93.5418 46.212 93.3938 45.76 93.0978 45.448C92.8018 45.128 92.3978 44.968 91.8858 44.968C91.3738 44.968 90.9658 45.128 90.6618 45.448C90.3658 45.76 90.2178 46.212 90.2178 46.804V50.5H88.8498V43.888H90.2178V44.644C90.4418 44.372 90.7258 44.16 91.0698 44.008C91.4138 43.856 91.7818 43.78 92.1738 43.78C92.7018 43.78 93.1738 43.892 93.5898 44.116C94.0058 44.34 94.3258 44.664 94.5498 45.088C94.7498 44.688 95.0618 44.372 95.4858 44.14C95.9098 43.9 96.3658 43.78 96.8538 43.78ZM100.875 47.164C100.875 46.5 101.011 45.912 101.283 45.4C101.563 44.888 101.939 44.492 102.411 44.212C102.891 43.924 103.419 43.78 103.995 43.78C104.515 43.78 104.967 43.884 105.351 44.092C105.743 44.292 106.055 44.544 106.287 44.848V43.888H107.667V50.5H106.287V49.516C106.055 49.828 105.739 50.088 105.339 50.296C104.939 50.504 104.483 50.608 103.971 50.608C103.403 50.608 102.883 50.464 102.411 50.176C101.939 49.88 101.563 49.472 101.283 48.952C101.011 48.424 100.875 47.828 100.875 47.164ZM106.287 47.188C106.287 46.732 106.191 46.336 105.999 46C105.815 45.664 105.571 45.408 105.267 45.232C104.963 45.056 104.635 44.968 104.283 44.968C103.931 44.968 103.603 45.056 103.299 45.232C102.995 45.4 102.747 45.652 102.555 45.988C102.371 46.316 102.279 46.708 102.279 47.164C102.279 47.62 102.371 48.02 102.555 48.364C102.747 48.708 102.995 48.972 103.299 49.156C103.611 49.332 103.939 49.42 104.283 49.42C104.635 49.42 104.963 49.332 105.267 49.156C105.571 48.98 105.815 48.724 105.999 48.388C106.191 48.044 106.287 47.644 106.287 47.188ZM112.139 43.78C112.651 43.78 113.103 43.884 113.495 44.092C113.895 44.292 114.207 44.544 114.431 44.848V43.888H115.811V50.608C115.811 51.216 115.683 51.756 115.427 52.228C115.171 52.708 114.799 53.084 114.311 53.356C113.831 53.628 113.255 53.764 112.583 53.764C111.687 53.764 110.943 53.552 110.351 53.128C109.759 52.712 109.423 52.144 109.343 51.424H110.699C110.803 51.768 111.023 52.044 111.359 52.252C111.703 52.468 112.111 52.576 112.583 52.576C113.135 52.576 113.579 52.408 113.915 52.072C114.259 51.736 114.431 51.248 114.431 50.608V49.504C114.199 49.816 113.883 50.08 113.483 50.296C113.091 50.504 112.643 50.608 112.139 50.608C111.563 50.608 111.035 50.464 110.555 50.176C110.083 49.88 109.707 49.472 109.427 48.952C109.155 48.424 109.019 47.828 109.019 47.164C109.019 46.5 109.155 45.912 109.427 45.4C109.707 44.888 110.083 44.492 110.555 44.212C111.035 43.924 111.563 43.78 112.139 43.78ZM114.431 47.188C114.431 46.732 114.335 46.336 114.143 46C113.959 45.664 113.715 45.408 113.411 45.232C113.107 45.056 112.779 44.968 112.427 44.968C112.075 44.968 111.747 45.056 111.443 45.232C111.139 45.4 110.891 45.652 110.699 45.988C110.515 46.316 110.423 46.708 110.423 47.164C110.423 47.62 110.515 48.02 110.699 48.364C110.891 48.708 111.139 48.972 111.443 49.156C111.755 49.332 112.083 49.42 112.427 49.42C112.779 49.42 113.107 49.332 113.411 49.156C113.715 48.98 113.959 48.724 114.143 48.388C114.335 48.044 114.431 47.644 114.431 47.188ZM117.164 47.164C117.164 46.5 117.3 45.912 117.572 45.4C117.852 44.888 118.228 44.492 118.7 44.212C119.18 43.924 119.708 43.78 120.284 43.78C120.804 43.78 121.256 43.884 121.64 44.092C122.032 44.292 122.344 44.544 122.576 44.848V43.888H123.956V50.5H122.576V49.516C122.344 49.828 122.028 50.088 121.628 50.296C121.228 50.504 120.772 50.608 120.26 50.608C119.692 50.608 119.172 50.464 118.7 50.176C118.228 49.88 117.852 49.472 117.572 48.952C117.3 48.424 117.164 47.828 117.164 47.164ZM122.576 47.188C122.576 46.732 122.48 46.336 122.288 46C122.104 45.664 121.86 45.408 121.556 45.232C121.252 45.056 120.924 44.968 120.572 44.968C120.22 44.968 119.892 45.056 119.588 45.232C119.284 45.4 119.036 45.652 118.844 45.988C118.66 46.316 118.568 46.708 118.568 47.164C118.568 47.62 118.66 48.02 118.844 48.364C119.036 48.708 119.284 48.972 119.588 49.156C119.9 49.332 120.228 49.42 120.572 49.42C120.924 49.42 121.252 49.332 121.556 49.156C121.86 48.98 122.104 48.724 122.288 48.388C122.48 48.044 122.576 47.644 122.576 47.188ZM133.769 43.78C134.289 43.78 134.753 43.888 135.161 44.104C135.577 44.32 135.901 44.64 136.133 45.064C136.373 45.488 136.493 46 136.493 46.6V50.5H135.137V46.804C135.137 46.212 134.989 45.76 134.693 45.448C134.397 45.128 133.993 44.968 133.481 44.968C132.969 44.968 132.561 45.128 132.257 45.448C131.961 45.76 131.813 46.212 131.813 46.804V50.5H130.457V46.804C130.457 46.212 130.309 45.76 130.013 45.448C129.717 45.128 129.313 44.968 128.801 44.968C128.289 44.968 127.881 45.128 127.577 45.448C127.281 45.76 127.133 46.212 127.133 46.804V50.5H125.765V43.888H127.133V44.644C127.357 44.372 127.641 44.16 127.985 44.008C128.329 43.856 128.697 43.78 129.089 43.78C129.617 43.78 130.089 43.892 130.505 44.116C130.921 44.34 131.241 44.664 131.465 45.088C131.665 44.688 131.977 44.372 132.401 44.14C132.825 43.9 133.281 43.78 133.769 43.78ZM138.942 43.012C138.694 43.012 138.486 42.928 138.318 42.76C138.15 42.592 138.066 42.384 138.066 42.136C138.066 41.888 138.15 41.68 138.318 41.512C138.486 41.344 138.694 41.26 138.942 41.26C139.182 41.26 139.386 41.344 139.554 41.512C139.722 41.68 139.806 41.888 139.806 42.136C139.806 42.384 139.722 42.592 139.554 42.76C139.386 42.928 139.182 43.012 138.942 43.012ZM139.614 43.888V50.5H138.246V43.888H139.614ZM143.018 45.004V48.664C143.018 48.912 143.074 49.092 143.186 49.204C143.306 49.308 143.506 49.36 143.786 49.36H144.626V50.5H143.546C142.93 50.5 142.458 50.356 142.13 50.068C141.802 49.78 141.638 49.312 141.638 48.664V45.004H140.858V43.888H141.638V42.244H143.018V43.888H144.626V45.004H143.018ZM152.364 43.78C152.884 43.78 153.348 43.888 153.756 44.104C154.172 44.32 154.496 44.64 154.728 45.064C154.96 45.488 155.076 46 155.076 46.6V50.5H153.72V46.804C153.72 46.212 153.572 45.76 153.276 45.448C152.98 45.128 152.576 44.968 152.064 44.968C151.552 44.968 151.144 45.128 150.84 45.448C150.544 45.76 150.396 46.212 150.396 46.804V50.5H149.028V43.888H150.396V44.644C150.62 44.372 150.904 44.16 151.248 44.008C151.6 43.856 151.972 43.78 152.364 43.78ZM159.497 43.78C160.009 43.78 160.461 43.884 160.853 44.092C161.253 44.292 161.565 44.544 161.789 44.848V43.888H163.169V50.608C163.169 51.216 163.041 51.756 162.785 52.228C162.529 52.708 162.157 53.084 161.669 53.356C161.189 53.628 160.613 53.764 159.941 53.764C159.045 53.764 158.301 53.552 157.709 53.128C157.117 52.712 156.781 52.144 156.701 51.424H158.057C158.161 51.768 158.381 52.044 158.717 52.252C159.061 52.468 159.469 52.576 159.941 52.576C160.493 52.576 160.937 52.408 161.273 52.072C161.617 51.736 161.789 51.248 161.789 50.608V49.504C161.557 49.816 161.241 50.08 160.841 50.296C160.449 50.504 160.001 50.608 159.497 50.608C158.921 50.608 158.393 50.464 157.913 50.176C157.441 49.88 157.065 49.472 156.785 48.952C156.513 48.424 156.377 47.828 156.377 47.164C156.377 46.5 156.513 45.912 156.785 45.4C157.065 44.888 157.441 44.492 157.913 44.212C158.393 43.924 158.921 43.78 159.497 43.78ZM161.789 47.188C161.789 46.732 161.693 46.336 161.501 46C161.317 45.664 161.073 45.408 160.769 45.232C160.465 45.056 160.137 44.968 159.785 44.968C159.433 44.968 159.105 45.056 158.801 45.232C158.497 45.4 158.249 45.652 158.057 45.988C157.873 46.316 157.781 46.708 157.781 47.164C157.781 47.62 157.873 48.02 158.057 48.364C158.249 48.708 158.497 48.972 158.801 49.156C159.113 49.332 159.441 49.42 159.785 49.42C160.137 49.42 160.465 49.332 160.769 49.156C161.073 48.98 161.317 48.724 161.501 48.388C161.693 48.044 161.789 47.644 161.789 47.188ZM167.651 47.164C167.651 46.5 167.787 45.912 168.059 45.4C168.339 44.888 168.715 44.492 169.187 44.212C169.667 43.924 170.195 43.78 170.771 43.78C171.291 43.78 171.743 43.884 172.127 44.092C172.519 44.292 172.831 44.544 173.063 44.848V43.888H174.443V50.5H173.063V49.516C172.831 49.828 172.515 50.088 172.115 50.296C171.715 50.504 171.259 50.608 170.747 50.608C170.179 50.608 169.659 50.464 169.187 50.176C168.715 49.88 168.339 49.472 168.059 48.952C167.787 48.424 167.651 47.828 167.651 47.164ZM173.063 47.188C173.063 46.732 172.967 46.336 172.775 46C172.591 45.664 172.347 45.408 172.043 45.232C171.739 45.056 171.411 44.968 171.059 44.968C170.707 44.968 170.379 45.056 170.075 45.232C169.771 45.4 169.523 45.652 169.331 45.988C169.147 46.316 169.055 46.708 169.055 47.164C169.055 47.62 169.147 48.02 169.331 48.364C169.523 48.708 169.771 48.972 170.075 49.156C170.387 49.332 170.715 49.42 171.059 49.42C171.411 49.42 171.739 49.332 172.043 49.156C172.347 48.98 172.591 48.724 172.775 48.388C172.967 48.044 173.063 47.644 173.063 47.188ZM177.62 44.86C177.852 44.556 178.168 44.3 178.568 44.092C178.968 43.884 179.42 43.78 179.924 43.78C180.5 43.78 181.024 43.924 181.496 44.212C181.976 44.492 182.352 44.888 182.624 45.4C182.896 45.912 183.032 46.5 183.032 47.164C183.032 47.828 182.896 48.424 182.624 48.952C182.352 49.472 181.976 49.88 181.496 50.176C181.024 50.464 180.5 50.608 179.924 50.608C179.42 50.608 178.972 50.508 178.58 50.308C178.188 50.1 177.868 49.844 177.62 49.54V53.644H176.252V43.888H177.62V44.86ZM181.64 47.164C181.64 46.708 181.544 46.316 181.352 45.988C181.168 45.652 180.92 45.4 180.608 45.232C180.304 45.056 179.976 44.968 179.624 44.968C179.28 44.968 178.952 45.056 178.64 45.232C178.336 45.408 178.088 45.664 177.896 46C177.712 46.336 177.62 46.732 177.62 47.188C177.62 47.644 177.712 48.044 177.896 48.388C178.088 48.724 178.336 48.98 178.64 49.156C178.952 49.332 179.28 49.42 179.624 49.42C179.976 49.42 180.304 49.332 180.608 49.156C180.92 48.972 181.168 48.708 181.352 48.364C181.544 48.02 181.64 47.62 181.64 47.164ZM185.764 44.86C185.996 44.556 186.312 44.3 186.712 44.092C187.112 43.884 187.564 43.78 188.068 43.78C188.644 43.78 189.168 43.924 189.64 44.212C190.12 44.492 190.496 44.888 190.768 45.4C191.04 45.912 191.176 46.5 191.176 47.164C191.176 47.828 191.04 48.424 190.768 48.952C190.496 49.472 190.12 49.88 189.64 50.176C189.168 50.464 188.644 50.608 188.068 50.608C187.564 50.608 187.116 50.508 186.724 50.308C186.332 50.1 186.012 49.844 185.764 49.54V53.644H184.396V43.888H185.764V44.86ZM189.784 47.164C189.784 46.708 189.688 46.316 189.496 45.988C189.312 45.652 189.064 45.4 188.752 45.232C188.448 45.056 188.12 44.968 187.768 44.968C187.424 44.968 187.096 45.056 186.784 45.232C186.48 45.408 186.232 45.664 186.04 46C185.856 46.336 185.764 46.732 185.764 47.188C185.764 47.644 185.856 48.044 186.04 48.388C186.232 48.724 186.48 48.98 186.784 49.156C187.096 49.332 187.424 49.42 187.768 49.42C188.12 49.42 188.448 49.332 188.752 49.156C189.064 48.972 189.312 48.708 189.496 48.364C189.688 48.02 189.784 47.62 189.784 47.164Z" fill="#878787"/>
<rect x="204" y="24.5" width="74" height="18" rx="9" fill="#D2FFE1"/>
<path d="M222.61 32.62C222.61 32.9733 222.527 33.3067 222.36 33.62C222.193 33.9333 221.927 34.19 221.56 34.39C221.193 34.5833 220.723 34.68 220.15 34.68H218.89V37.5H217.75V30.55H220.15C220.683 30.55 221.133 30.6433 221.5 30.83C221.873 31.01 222.15 31.2567 222.33 31.57C222.517 31.8833 222.61 32.2333 222.61 32.62ZM220.15 33.75C220.583 33.75 220.907 33.6533 221.12 33.46C221.333 33.26 221.44 32.98 221.44 32.62C221.44 31.86 221.01 31.48 220.15 31.48H218.89V33.75H220.15ZM224.847 32.79C225.014 32.51 225.234 32.2933 225.507 32.14C225.787 31.98 226.117 31.9 226.497 31.9V33.08H226.207C225.761 33.08 225.421 33.1933 225.187 33.42C224.961 33.6467 224.847 34.04 224.847 34.6V37.5H223.707V31.99H224.847V32.79ZM229.945 37.59C229.425 37.59 228.955 37.4733 228.535 37.24C228.115 37 227.785 36.6667 227.545 36.24C227.305 35.8067 227.185 35.3067 227.185 34.74C227.185 34.18 227.308 33.6833 227.555 33.25C227.802 32.8167 228.138 32.4833 228.565 32.25C228.992 32.0167 229.468 31.9 229.995 31.9C230.522 31.9 230.998 32.0167 231.425 32.25C231.852 32.4833 232.188 32.8167 232.435 33.25C232.682 33.6833 232.805 34.18 232.805 34.74C232.805 35.3 232.678 35.7967 232.425 36.23C232.172 36.6633 231.825 37 231.385 37.24C230.952 37.4733 230.472 37.59 229.945 37.59ZM229.945 36.6C230.238 36.6 230.512 36.53 230.765 36.39C231.025 36.25 231.235 36.04 231.395 35.76C231.555 35.48 231.635 35.14 231.635 34.74C231.635 34.34 231.558 34.0033 231.405 33.73C231.252 33.45 231.048 33.24 230.795 33.1C230.542 32.96 230.268 32.89 229.975 32.89C229.682 32.89 229.408 32.96 229.155 33.1C228.908 33.24 228.712 33.45 228.565 33.73C228.418 34.0033 228.345 34.34 228.345 34.74C228.345 35.3333 228.495 35.7933 228.795 36.12C229.102 36.44 229.485 36.6 229.945 36.6ZM235.272 32.92V35.97C235.272 36.1767 235.319 36.3267 235.412 36.42C235.512 36.5067 235.679 36.55 235.912 36.55H236.612V37.5H235.712C235.199 37.5 234.805 37.38 234.532 37.14C234.259 36.9 234.122 36.51 234.122 35.97V32.92H233.472V31.99H234.122V30.62H235.272V31.99H236.612V32.92H235.272ZM242.723 34.61C242.723 34.8167 242.709 35.0033 242.683 35.17H238.473C238.506 35.61 238.669 35.9633 238.963 36.23C239.256 36.4967 239.616 36.63 240.043 36.63C240.656 36.63 241.089 36.3733 241.343 35.86H242.573C242.406 36.3667 242.103 36.7833 241.663 37.11C241.229 37.43 240.689 37.59 240.043 37.59C239.516 37.59 239.043 37.4733 238.623 37.24C238.209 37 237.883 36.6667 237.643 36.24C237.409 35.8067 237.293 35.3067 237.293 34.74C237.293 34.1733 237.406 33.6767 237.633 33.25C237.866 32.8167 238.189 32.4833 238.603 32.25C239.023 32.0167 239.503 31.9 240.043 31.9C240.563 31.9 241.026 32.0133 241.433 32.24C241.839 32.4667 242.156 32.7867 242.383 33.2C242.609 33.6067 242.723 34.0767 242.723 34.61ZM241.533 34.25C241.526 33.83 241.376 33.4933 241.083 33.24C240.789 32.9867 240.426 32.86 239.993 32.86C239.599 32.86 239.263 32.9867 238.983 33.24C238.703 33.4867 238.536 33.8233 238.483 34.25H241.533ZM243.475 34.74C243.475 34.1733 243.588 33.6767 243.815 33.25C244.048 32.8167 244.368 32.4833 244.775 32.25C245.181 32.0167 245.648 31.9 246.175 31.9C246.841 31.9 247.391 32.06 247.825 32.38C248.265 32.6933 248.561 33.1433 248.715 33.73H247.485C247.385 33.4567 247.225 33.2433 247.005 33.09C246.785 32.9367 246.508 32.86 246.175 32.86C245.708 32.86 245.335 33.0267 245.055 33.36C244.781 33.6867 244.645 34.1467 244.645 34.74C244.645 35.3333 244.781 35.7967 245.055 36.13C245.335 36.4633 245.708 36.63 246.175 36.63C246.835 36.63 247.271 36.34 247.485 35.76H248.715C248.555 36.32 248.255 36.7667 247.815 37.1C247.375 37.4267 246.828 37.59 246.175 37.59C245.648 37.59 245.181 37.4733 244.775 37.24C244.368 37 244.048 36.6667 243.815 36.24C243.588 35.8067 243.475 35.3067 243.475 34.74ZM251.191 32.92V35.97C251.191 36.1767 251.237 36.3267 251.331 36.42C251.431 36.5067 251.597 36.55 251.831 36.55H252.531V37.5H251.631C251.117 37.5 250.724 37.38 250.451 37.14C250.177 36.9 250.041 36.51 250.041 35.97V32.92H249.391V31.99H250.041V30.62H251.191V31.99H252.531V32.92H251.191ZM258.641 34.61C258.641 34.8167 258.628 35.0033 258.601 35.17H254.391C254.425 35.61 254.588 35.9633 254.881 36.23C255.175 36.4967 255.535 36.63 255.961 36.63C256.575 36.63 257.008 36.3733 257.261 35.86H258.491C258.325 36.3667 258.021 36.7833 257.581 37.11C257.148 37.43 256.608 37.59 255.961 37.59C255.435 37.59 254.961 37.4733 254.541 37.24C254.128 37 253.801 36.6667 253.561 36.24C253.328 35.8067 253.211 35.3067 253.211 34.74C253.211 34.1733 253.325 33.6767 253.551 33.25C253.785 32.8167 254.108 32.4833 254.521 32.25C254.941 32.0167 255.421 31.9 255.961 31.9C256.481 31.9 256.945 32.0133 257.351 32.24C257.758 32.4667 258.075 32.7867 258.301 33.2C258.528 33.6067 258.641 34.0767 258.641 34.61ZM257.451 34.25C257.445 33.83 257.295 33.4933 257.001 33.24C256.708 32.9867 256.345 32.86 255.911 32.86C255.518 32.86 255.181 32.9867 254.901 33.24C254.621 33.4867 254.455 33.8233 254.401 34.25H257.451ZM259.393 34.72C259.393 34.1667 259.507 33.6767 259.733 33.25C259.967 32.8233 260.28 32.4933 260.673 32.26C261.073 32.02 261.517 31.9 262.003 31.9C262.363 31.9 262.717 31.98 263.063 32.14C263.417 32.2933 263.697 32.5 263.903 32.76V30.1H265.053V37.5H263.903V36.67C263.717 36.9367 263.457 37.1567 263.123 37.33C262.797 37.5033 262.42 37.59 261.993 37.59C261.513 37.59 261.073 37.47 260.673 37.23C260.28 36.9833 259.967 36.6433 259.733 36.21C259.507 35.77 259.393 35.2733 259.393 34.72ZM263.903 34.74C263.903 34.36 263.823 34.03 263.663 33.75C263.51 33.47 263.307 33.2567 263.053 33.11C262.8 32.9633 262.527 32.89 262.233 32.89C261.94 32.89 261.667 32.9633 261.413 33.11C261.16 33.25 260.953 33.46 260.793 33.74C260.64 34.0133 260.563 34.34 260.563 34.72C260.563 35.1 260.64 35.4333 260.793 35.72C260.953 36.0067 261.16 36.2267 261.413 36.38C261.673 36.5267 261.947 36.6 262.233 36.6C262.527 36.6 262.8 36.5267 263.053 36.38C263.307 36.2333 263.51 36.02 263.663 35.74C263.823 35.4533 263.903 35.12 263.903 34.74Z" fill="#165C5E"/>
</svg>
