<svg width="32" height="32" viewBox="0 0 32 32" fill="none" xmlns="http://www.w3.org/2000/svg">
<rect width="32" height="32" rx="10" fill="#D6F0F0"/>
<path d="M23 24C23 24.2652 22.8946 24.5196 22.7071 24.7071C22.5196 24.8946 22.2652 25 22 25H10C9.73478 25 9.48043 24.8946 9.29289 24.7071C9.10536 24.5196 9 24.2652 9 24V10.5C9 10.2348 9.10536 9.98043 9.29289 9.79289C9.48043 9.60536 9.73478 9.5 10 9.5H22C22.2652 9.5 22.5196 9.60536 22.7071 9.79289C22.8946 9.98043 23 10.2348 23 10.5V24Z" fill="#C1694F"/>
<path d="M21.5 23C21.5 23.1326 21.4473 23.2598 21.3536 23.3536C21.2598 23.4473 21.1326 23.5 21 23.5H11C10.8674 23.5 10.7402 23.4473 10.6464 23.3536C10.5527 23.2598 10.5 23.1326 10.5 23V11.5C10.5 11.3674 10.5527 11.2402 10.6464 11.1464C10.7402 11.0527 10.8674 11 11 11H21C21.1326 11 21.2598 11.0527 21.3536 11.1464C21.4473 11.2402 21.5 11.3674 21.5 11.5V23Z" fill="white"/>
<path d="M19.5 8.5H17.5C17.5 8.10218 17.342 7.72064 17.0607 7.43934C16.7794 7.15804 16.3978 7 16 7C15.6022 7 15.2206 7.15804 14.9393 7.43934C14.658 7.72064 14.5 8.10218 14.5 8.5H12.5C12.2348 8.5 11.9804 8.60536 11.7929 8.79289C11.6054 8.98043 11.5 9.23478 11.5 9.5V12H20.5V9.5C20.5 9.23478 20.3946 8.98043 20.2071 8.79289C20.0196 8.60536 19.7652 8.5 19.5 8.5Z" fill="#CCD6DD"/>
<path d="M16 9.5C16.5523 9.5 17 9.05228 17 8.5C17 7.94772 16.5523 7.5 16 7.5C15.4477 7.5 15 7.94772 15 8.5C15 9.05228 15.4477 9.5 16 9.5Z" fill="#292F33"/>
<path d="M17 14C17 14.1326 16.9473 14.2598 16.8536 14.3536C16.7598 14.4473 16.6326 14.5 16.5 14.5H12C11.8674 14.5 11.7402 14.4473 11.6464 14.3536C11.5527 14.2598 11.5 14.1326 11.5 14C11.5 13.8674 11.5527 13.7402 11.6464 13.6464C11.7402 13.5527 11.8674 13.5 12 13.5H16.5C16.6326 13.5 16.7598 13.5527 16.8536 13.6464C16.9473 13.7402 17 13.8674 17 14ZM20.5 16C20.5 16.1326 20.4473 16.2598 20.3536 16.3536C20.2598 16.4473 20.1326 16.5 20 16.5H12C11.8674 16.5 11.7402 16.4473 11.6464 16.3536C11.5527 16.2598 11.5 16.1326 11.5 16C11.5 15.8674 11.5527 15.7402 11.6464 15.6464C11.7402 15.5527 11.8674 15.5 12 15.5H20C20.1326 15.5 20.2598 15.5527 20.3536 15.6464C20.4473 15.7402 20.5 15.8674 20.5 16ZM20.5 18C20.5 18.1326 20.4473 18.2598 20.3536 18.3536C20.2598 18.4473 20.1326 18.5 20 18.5H12C11.8674 18.5 11.7402 18.4473 11.6464 18.3536C11.5527 18.2598 11.5 18.1326 11.5 18C11.5 17.8674 11.5527 17.7402 11.6464 17.6464C11.7402 17.5527 11.8674 17.5 12 17.5H20C20.1326 17.5 20.2598 17.5527 20.3536 17.6464C20.4473 17.7402 20.5 17.8674 20.5 18ZM20.5 20C20.5 20.1326 20.4473 20.2598 20.3536 20.3536C20.2598 20.4473 20.1326 20.5 20 20.5H12C11.8674 20.5 11.7402 20.4473 11.6464 20.3536C11.5527 20.2598 11.5 20.1326 11.5 20C11.5 19.8674 11.5527 19.7402 11.6464 19.6464C11.7402 19.5527 11.8674 19.5 12 19.5H20C20.1326 19.5 20.2598 19.5527 20.3536 19.6464C20.4473 19.7402 20.5 19.8674 20.5 20ZM20.5 22C20.5 22.1326 20.4473 22.2598 20.3536 22.3536C20.2598 22.4473 20.1326 22.5 20 22.5H15.5C15.3674 22.5 15.2402 22.4473 15.1464 22.3536C15.0527 22.2598 15 22.1326 15 22C15 21.8674 15.0527 21.7402 15.1464 21.6464C15.2402 21.5527 15.3674 21.5 15.5 21.5H20C20.1326 21.5 20.2598 21.5527 20.3536 21.6464C20.4473 21.7402 20.5 21.8674 20.5 22Z" fill="#99AAB5"/>
</svg>
