<svg width="32" height="32" viewBox="0 0 32 32" fill="none" xmlns="http://www.w3.org/2000/svg">
<rect width="32" height="32" rx="10" fill="#D6F0F0"/>
<path d="M17.5 18C17.8978 18 18.2794 18.158 18.5607 18.4393C18.842 18.7206 19 19.1022 19 19.5V20C19 21.971 17.14 24 14 24C10.86 24 9 21.971 9 20V19.5C9 19.1022 9.15804 18.7206 9.43934 18.4393C9.72064 18.158 10.1022 18 10.5 18H17.5Z" fill="url(#paint0_linear_131_2837)"/>
<path d="M17.5 18C17.8978 18 18.2794 18.158 18.5607 18.4393C18.842 18.7206 19 19.1022 19 19.5V20C19 21.971 17.14 24 14 24C10.86 24 9 21.971 9 20V19.5C9 19.1022 9.15804 18.7206 9.43934 18.4393C9.72064 18.158 10.1022 18 10.5 18H17.5Z" fill="url(#paint1_linear_131_2837)"/>
<path d="M14 11.5C14.7293 11.5 15.4288 11.7897 15.9445 12.3055C16.4603 12.8212 16.75 13.5207 16.75 14.25C16.75 14.9793 16.4603 15.6788 15.9445 16.1945C15.4288 16.7103 14.7293 17 14 17C13.2707 17 12.5712 16.7103 12.0555 16.1945C11.5397 15.6788 11.25 14.9793 11.25 14.25C11.25 13.5207 11.5397 12.8212 12.0555 12.3055C12.5712 11.7897 13.2707 11.5 14 11.5Z" fill="url(#paint2_linear_131_2837)"/>
<path fill-rule="evenodd" clip-rule="evenodd" d="M19 8C18.4696 8 17.9609 8.21071 17.5858 8.58579C17.2107 8.96086 17 9.46957 17 10V12C17 12.5304 17.2107 13.0391 17.5858 13.4142C17.9609 13.7893 18.4696 14 19 14V15.227C19 15.969 19.94 16.292 20.396 15.706L21.722 14H23C23.5304 14 24.0391 13.7893 24.4142 13.4142C24.7893 13.0391 25 12.5304 25 12V10C25 9.46957 24.7893 8.96086 24.4142 8.58579C24.0391 8.21071 23.5304 8 23 8H19Z" fill="url(#paint3_radial_131_2837)"/>
<defs>
<linearGradient id="paint0_linear_131_2837" x1="11.378" y1="18.798" x2="13.616" y2="24.754" gradientUnits="userSpaceOnUse">
<stop offset="0.125" stop-color="#9C6CFE"/>
<stop offset="1" stop-color="#7A41DC"/>
</linearGradient>
<linearGradient id="paint1_linear_131_2837" x1="14" y1="17.286" x2="17.164" y2="27.139" gradientUnits="userSpaceOnUse">
<stop stop-color="#885EDB" stop-opacity="0"/>
<stop offset="1" stop-color="#E362F8"/>
</linearGradient>
<linearGradient id="paint2_linear_131_2837" x1="12.558" y1="12.231" x2="15.361" y2="16.707" gradientUnits="userSpaceOnUse">
<stop offset="0.125" stop-color="#9C6CFE"/>
<stop offset="1" stop-color="#7A41DC"/>
</linearGradient>
<radialGradient id="paint3_radial_131_2837" cx="0" cy="0" r="1" gradientUnits="userSpaceOnUse" gradientTransform="translate(15.1538 5.53513) rotate(49.594) scale(14.8043 26.6633)">
<stop stop-color="#FAB500"/>
<stop offset="0.535" stop-color="#FE8401"/>
<stop offset="1" stop-color="#FB5937"/>
</radialGradient>
</defs>
</svg>
