<svg width="32" height="32" viewBox="0 0 32 32" fill="none" xmlns="http://www.w3.org/2000/svg">
<rect width="32" height="32" rx="10" fill="#D6F0F0"/>
<path d="M10.5641 11.832L11.9589 11.405C12.0688 11.3714 12.1842 11.3598 12.2986 11.3708C12.413 11.3818 12.5242 11.4152 12.6256 11.4692C12.7271 11.5231 12.817 11.5965 12.8901 11.6852C12.9632 11.7739 13.0181 11.8761 13.0518 11.986C13.0854 12.0959 13.097 12.2114 13.086 12.3258C13.075 12.4402 13.0415 12.5513 12.9876 12.6528C12.9336 12.7543 12.8602 12.8441 12.7716 12.9172C12.6829 12.9904 12.5807 13.0453 12.4708 13.0789L9.12388 14.1027C9.01391 14.1363 8.8984 14.1479 8.78395 14.1368C8.66949 14.1258 8.55833 14.0923 8.45684 14.0382C8.35534 13.9842 8.26548 13.9107 8.19242 13.8219C8.11935 13.7331 8.0645 13.6308 8.031 13.5208L7.00725 10.1739C6.97364 10.064 6.96201 9.94854 6.97302 9.83414C6.98403 9.71973 7.01746 9.60862 7.07141 9.50713C7.12536 9.40565 7.19877 9.31579 7.28745 9.24268C7.37613 9.16957 7.47834 9.11464 7.58825 9.08103C7.81022 9.01315 8.05007 9.03623 8.25502 9.14518C8.45997 9.25414 8.61325 9.44006 8.68113 9.66203L9.06613 10.9229C11.1731 7.67753 15.353 6.2819 19.0639 7.80265C20.1737 8.25748 21.1703 8.95001 21.9836 9.8315C22.7969 10.713 23.4072 11.762 23.7714 12.9048C23.8087 13.0149 23.8238 13.1313 23.8156 13.2472C23.8075 13.3632 23.7763 13.4763 23.7239 13.5801C23.6715 13.6839 23.599 13.7762 23.5106 13.8516C23.4221 13.927 23.3195 13.9841 23.2088 14.0194C23.0981 14.0548 22.9814 14.0677 22.8656 14.0575C22.7498 14.0472 22.6372 14.014 22.5344 13.9597C22.4316 13.9055 22.3407 13.8313 22.2668 13.7415C22.193 13.6517 22.1378 13.5481 22.1045 13.4368C21.7348 12.276 21.0444 11.2434 20.1129 10.4583C19.1814 9.67315 18.0468 9.16749 16.8402 8.99969C15.6336 8.83189 14.4041 9.00879 13.2937 9.50996C12.1834 10.0111 11.2365 10.8161 10.5641 11.832ZM21.3503 19.0027L19.7971 19.3903C19.6847 19.4211 19.5672 19.4292 19.4516 19.414C19.3359 19.3987 19.2245 19.3606 19.1239 19.3017C19.0232 19.2428 18.9354 19.1644 18.8655 19.0711C18.7955 18.9777 18.745 18.8714 18.7167 18.7582C18.6885 18.6451 18.6832 18.5274 18.7011 18.4122C18.719 18.297 18.7597 18.1865 18.8209 18.0872C18.8821 17.988 18.9625 17.9019 19.0574 17.8342C19.1524 17.7665 19.2599 17.7184 19.3736 17.6928L22.5613 16.8974C22.7274 16.8186 22.9142 16.7941 23.095 16.8274C23.2693 16.8503 23.4326 16.9252 23.5637 17.0422C23.6948 17.1593 23.7876 17.3131 23.83 17.4837L24.677 20.8787C24.7272 21.1016 24.6881 21.3354 24.5682 21.5299C24.4482 21.7245 24.2569 21.8644 24.0352 21.9197C23.8134 21.975 23.5788 21.9414 23.3815 21.826C23.1842 21.7106 23.0399 21.5226 22.9795 21.3022L22.6908 20.1454C21.8483 21.3578 20.6944 22.3205 19.3507 22.9321C18.007 23.5438 16.5232 23.7817 15.0557 23.6208C13.5881 23.4599 12.1911 22.9062 11.0118 22.018C9.83249 21.1298 8.91459 19.94 8.35475 18.5739L8.12725 18.0192C8.0837 17.9128 8.06153 17.7989 8.06199 17.684C8.06245 17.5691 8.08554 17.4554 8.12995 17.3494C8.17435 17.2434 8.2392 17.1472 8.32078 17.0663C8.40237 16.9853 8.49909 16.9213 8.60544 16.8777C8.82022 16.7898 9.06113 16.7907 9.2752 16.8804C9.38119 16.9248 9.4774 16.9897 9.55833 17.0712C9.63926 17.1528 9.70333 17.2496 9.74688 17.3559L9.97438 17.9098C10.4204 18.9981 11.1552 19.944 12.0994 20.6453C13.0436 21.3467 14.1615 21.7768 15.3323 21.8894C16.5031 22.002 17.6824 21.7927 18.7429 21.2841C19.8035 20.7755 20.705 19.9861 21.3503 19.0027Z" fill="black"/>
</svg>
