<svg width="32" height="32" viewBox="0 0 32 32" fill="none" xmlns="http://www.w3.org/2000/svg">
<rect width="32" height="32" rx="10" fill="#D6F0F0"/>
<g clip-path="url(#clip0_131_2787)">
<path fill-rule="evenodd" clip-rule="evenodd" d="M9.83337 23.2916H21.1667V20.8379L17.9537 17.6249L19.206 16.3726L20.0787 15.4999L19.206 14.6273L17.9537 13.3749L19.206 12.1226L21.1667 10.1619V7.70825H9.83337V10.1626L13.0457 13.3749L10.9207 15.4999L13.0457 17.6249L9.83337 20.8372V23.2916ZM21.1667 11.665L19.4568 13.3749L19.9576 12.8741L21.1667 11.665ZM19.9576 17.1241L19.4568 17.6249L21.1667 19.3348L19.9576 18.1257L19.4568 17.6249L19.9576 17.1241Z" fill="#8FBFFA"/>
<path d="M16.9167 19.75H14.0834V21.1667H16.9167V19.75Z" fill="#2859C5"/>
<path fill-rule="evenodd" clip-rule="evenodd" d="M7.91589 11.7506L9.5401 13.3748L7.91589 14.999L7.4151 15.4998L7.91589 16.0006L9.5401 17.6248L7.91589 19.249L8.91748 20.2506L11.0425 18.1256L11.5433 17.6248L11.0425 17.124L9.41827 15.4998L11.0425 13.8756L11.5433 13.3748L11.0425 12.874L8.91748 10.749L7.91589 11.7506ZM23.0841 11.7506L21.4599 13.3748L23.0841 14.999L23.5849 15.4998L23.0841 16.0006L21.4599 17.6248L23.0841 19.249L22.0826 20.2506L19.9576 18.1256L19.4568 17.6248L19.9576 17.124L21.5818 15.4998L19.9576 13.8756L19.4568 13.3748L19.9576 12.874L22.0826 10.749L23.0841 11.7506Z" fill="#2859C5"/>
</g>
<defs>
<clipPath id="clip0_131_2787">
<rect width="17" height="17" fill="white" transform="translate(7 7)"/>
</clipPath>
</defs>
</svg>
